<svg width="180" height="180" viewBox="0 0 180 180" fill="none" xmlns="http://www.w3.org/2000/svg">
<path d="M157.5 120.013V59.9801C157.498 58.0152 156.981 56.0852 156.001 54.3822C155.02 52.6792 153.611 51.2626 151.914 50.2734L98.4762 19.1742C95.9015 17.6753 92.9756 16.8857 89.9965 16.8857C87.0173 16.8857 84.0914 17.6753 81.5168 19.1742L28.0863 50.2734C26.3886 51.2626 24.9796 52.6792 23.9995 54.3822C23.0194 56.0852 22.5024 58.0152 22.5 59.9801V120.013C22.5012 121.979 23.0176 123.91 23.9977 125.615C24.9779 127.319 26.3876 128.737 28.0863 129.727L81.5238 160.826C84.0992 162.323 87.0248 163.111 90.0035 163.111C92.9822 163.111 95.9079 162.323 98.4832 160.826L151.921 129.727C153.618 128.736 155.026 127.318 156.005 125.614C156.984 123.909 157.5 121.978 157.5 120.013Z" stroke="black" stroke-width="14" stroke-linecap="round" stroke-linejoin="round"/>
<path d="M24.2578 54.1371L90 92.809L155.742 54.1371" stroke="black" stroke-width="14" stroke-linecap="round" stroke-linejoin="round"/>
<path d="M90 163.121V92.809" stroke="black" stroke-width="14" stroke-linecap="round" stroke-linejoin="round"/>
<path d="M90 59.0625C94.6599 59.0625 98.4375 56.5441 98.4375 53.4375C98.4375 50.3309 94.6599 47.8125 90 47.8125C85.3401 47.8125 81.5625 50.3309 81.5625 53.4375C81.5625 56.5441 85.3401 59.0625 90 59.0625Z" fill="black"/>
<path d="M73.125 112.5C76.2316 112.5 78.75 108.722 78.75 104.062C78.75 99.4026 76.2316 95.625 73.125 95.625C70.0184 95.625 67.5 99.4026 67.5 104.062C67.5 108.722 70.0184 112.5 73.125 112.5Z" fill="black"/>
<path d="M39.375 123.75C42.4816 123.75 45 119.972 45 115.312C45 110.653 42.4816 106.875 39.375 106.875C36.2684 106.875 33.75 110.653 33.75 115.312C33.75 119.972 36.2684 123.75 39.375 123.75Z" fill="black"/>
<path d="M106.875 112.5C109.982 112.5 112.5 108.722 112.5 104.062C112.5 99.4026 109.982 95.625 106.875 95.625C103.768 95.625 101.25 99.4026 101.25 104.062C101.25 108.722 103.768 112.5 106.875 112.5Z" fill="black"/>
<path d="M140.625 92.8125C143.732 92.8125 146.25 89.0349 146.25 84.375C146.25 79.7151 143.732 75.9375 140.625 75.9375C137.518 75.9375 135 79.7151 135 84.375C135 89.0349 137.518 92.8125 140.625 92.8125Z" fill="black"/>
<path d="M106.875 143.438C109.982 143.438 112.5 139.66 112.5 135C112.5 130.34 109.982 126.562 106.875 126.562C103.768 126.562 101.25 130.34 101.25 135C101.25 139.66 103.768 143.438 106.875 143.438Z" fill="black"/>
<path d="M140.625 123.75C143.732 123.75 146.25 119.972 146.25 115.312C146.25 110.653 143.732 106.875 140.625 106.875C137.518 106.875 135 110.653 135 115.312C135 119.972 137.518 123.75 140.625 123.75Z" fill="black"/>
</svg>
