<svg width="78" height="87" viewBox="0 0 78 87" fill="none" xmlns="http://www.w3.org/2000/svg">
<g filter="url(#filter0_i)">
<path d="M77.6844 24.9765C77.5445 25.4765 77.3944 25.9765 77.2444 26.4665C77.2372 26.5052 77.2237 26.5423 77.2044 26.5765C77.1944 26.6165 77.1844 26.6565 77.1744 26.6865C77.1545 26.7422 77.1378 26.7989 77.1244 26.8565C77.0444 27.1065 76.9644 27.3465 76.8844 27.5765C76.8244 27.7565 76.7644 27.9365 76.7044 28.1065C76.6772 28.2052 76.6438 28.302 76.6044 28.3965C76.5905 28.4616 76.5704 28.5252 76.5445 28.5865V28.5965C76.5445 28.6065 76.5344 28.6165 76.5244 28.6365C76.5126 28.659 76.5026 28.6825 76.4944 28.7065C76.4844 28.7265 76.4744 28.7565 76.4644 28.7765C76.3544 29.0865 76.2444 29.4065 76.1244 29.7165C76.0044 30.0265 75.8845 30.3565 75.7544 30.6665C75.5344 31.2365 75.2944 31.8065 75.0544 32.3665C74.9444 32.6365 74.8244 32.9065 74.6944 33.1665C74.5844 33.4365 74.4644 33.7065 74.3344 33.9665C74.3144 34.0065 74.2944 34.0565 74.2744 34.0965C73.9944 34.7065 73.6944 35.3065 73.3844 35.8965C73.3438 35.9928 73.2971 36.0863 73.2444 36.1765C72.9144 36.8165 72.5744 37.4365 72.2144 38.0565C72.2046 38.0979 72.1839 38.1359 72.1544 38.1665C71.9844 38.4865 71.7945 38.7965 71.6144 39.0965C71.3744 39.5065 71.1344 39.9065 70.8744 40.3065C70.8144 40.4065 70.7544 40.5065 70.6844 40.6065C70.4745 40.9465 70.2444 41.2965 70.0144 41.6365C69.5644 42.3165 69.1045 42.9865 68.6144 43.6465C68.5911 43.6911 68.5607 43.7316 68.5244 43.7665C68.4511 43.8812 68.3709 43.9914 68.2844 44.0965C68.2744 44.1165 68.2544 44.1365 68.2444 44.1565C68.1744 44.2565 68.0944 44.3565 68.0244 44.4465C67.9544 44.5365 67.8944 44.6265 67.8244 44.7165C67.8145 44.7365 67.7944 44.7565 67.7844 44.7765C67.7244 44.8565 67.6644 44.9265 67.5944 45.0065C67.4544 45.1965 67.3144 45.3765 67.1644 45.5565C67.0867 45.6674 67.0032 45.7743 66.9144 45.8765C66.8544 45.9565 66.7944 46.0365 66.7244 46.1165C66.6544 46.1965 66.5844 46.2865 66.5144 46.3665C66.4644 46.4365 66.4044 46.5065 66.3544 46.5665L66.3344 46.5865C66.2344 46.7065 66.1444 46.8265 66.0445 46.9365C65.8244 47.1965 65.6044 47.4565 65.3744 47.7165C65.3244 47.7765 65.2844 47.8265 65.2344 47.8765C65.194 47.929 65.1506 47.979 65.1044 48.0265C64.8644 48.3065 64.6144 48.5765 64.3544 48.8565C64.2944 48.9265 64.2344 48.9965 64.1644 49.0665C64.0944 49.1365 64.0244 49.2165 63.9544 49.2865C63.8144 49.4365 63.6744 49.5865 63.5244 49.7365C63.4598 49.8148 63.3896 49.8883 63.3144 49.9565C62.9744 50.3165 62.6144 50.6765 62.2444 51.0365C62.0844 51.1965 61.9144 51.3665 61.7344 51.5365C60.8044 52.4365 59.8444 53.2965 58.8444 54.1365C58.817 54.1629 58.7868 54.1864 58.7544 54.2065C58.5944 54.3465 58.4244 54.4865 58.2544 54.6265C58.1144 54.7465 57.9644 54.8665 57.8144 54.9865C57.7744 55.0165 57.7344 55.0465 57.7044 55.0665C57.4544 55.2765 57.1944 55.4765 56.9444 55.6665C56.5744 55.9565 56.2044 56.2365 55.8344 56.5065C55.7344 56.5865 55.6244 56.6565 55.5244 56.7265C55.4869 56.7597 55.4468 56.7898 55.4044 56.8165C55.3855 56.8386 55.3615 56.8558 55.3344 56.8665C55.2544 56.9265 55.1744 56.9865 55.0944 57.0365C54.8444 57.2165 54.6044 57.3865 54.3544 57.5565C54.2425 57.6433 54.1257 57.7234 54.0044 57.7965C53.7045 57.9965 53.4144 58.1965 53.1144 58.3865C52.9845 58.4765 52.8644 58.5565 52.7344 58.6365C52.6044 58.7165 52.4744 58.8065 52.3444 58.8865C52.1644 58.9965 51.9844 59.1165 51.8044 59.2165C51.7039 59.2925 51.5968 59.3594 51.4844 59.4165L51.3344 59.5065C51.2744 59.5465 51.2044 59.5865 51.1444 59.6265C50.3344 60.1065 49.5144 60.5665 48.6844 61.0165C48.3444 61.1965 47.9944 61.3765 47.6444 61.5565C47.5832 61.5937 47.5198 61.6271 47.4544 61.6565C47.4444 61.6565 47.4444 61.6665 47.4344 61.6665C47.5445 61.2465 47.6444 60.8165 47.7444 60.3865C47.8244 60.0465 47.9044 59.7065 47.9744 59.3665C48.1444 58.6165 48.2844 57.8565 48.4144 57.0865V57.0565C48.4182 57.0526 48.4211 57.0478 48.4228 57.0427C48.4245 57.0375 48.4251 57.032 48.4244 57.0265C48.4444 56.9265 48.4644 56.8165 48.4744 56.7165C48.5044 56.5465 48.5344 56.3865 48.5544 56.2165C48.6444 55.6765 48.7245 55.1265 48.7945 54.5765C48.7945 54.5465 48.8044 54.5165 48.8044 54.4865C48.8644 54.0065 48.9244 53.5265 48.9744 53.0465C48.9844 52.9865 48.9844 52.9165 48.9944 52.8565L49.0244 52.4665C49.0744 51.9265 49.1144 51.3765 49.1544 50.8365V50.7865C49.1944 50.1665 49.2244 49.5365 49.2444 48.9165C49.2644 48.2965 49.2744 47.6565 49.2744 47.0265C49.2744 46.5065 49.2644 45.9965 49.2544 45.4865C49.2444 45.2565 49.2444 45.0365 49.2244 44.8065C49.2144 44.3965 49.1944 43.9865 49.1744 43.5765C49.1544 43.3465 49.1444 43.1065 49.1244 42.8765C49.1144 42.7265 49.1044 42.5865 49.0944 42.4365C49.0744 42.1565 49.0544 41.8865 49.0244 41.6165L48.9944 41.3165C48.9844 41.1465 48.9644 40.9665 48.9444 40.7865C48.9394 40.696 48.9294 40.6059 48.9144 40.5165C48.8844 40.1565 48.8344 39.7865 48.7844 39.4265C48.7244 38.9365 48.6544 38.4365 48.5744 37.9465C48.5244 37.5965 48.4644 37.2565 48.4044 36.9065C48.3544 36.5965 48.3044 36.2965 48.2444 35.9865C48.1844 35.6765 48.1144 35.3465 48.0445 35.0265V35.0065C48.0044 34.8165 47.9644 34.6165 47.9244 34.4265C47.9144 34.3765 47.9044 34.3365 47.8944 34.2865C47.8544 34.1065 47.8144 33.9165 47.7644 33.7365C47.7559 33.6756 47.7425 33.6154 47.7244 33.5565C47.6444 33.2265 47.5744 32.9065 47.4944 32.5865C47.4744 32.5165 47.4644 32.4565 47.4444 32.3965C47.3644 32.0865 47.2844 31.7765 47.1944 31.4565C47.1544 31.3165 47.1144 31.1665 47.0744 31.0165L46.9244 30.5065C46.8844 30.3565 46.8444 30.2065 46.7945 30.0665C46.7858 30.0186 46.7724 29.9718 46.7544 29.9265C46.7244 29.8265 46.6944 29.7365 46.6644 29.6365C46.6544 29.6165 46.6544 29.5865 46.6444 29.5665C46.5644 29.3065 46.4944 29.0565 46.4044 28.8065C46.3844 28.7465 46.3644 28.6965 46.3444 28.6365C46.3244 28.5765 46.3044 28.4965 46.2744 28.4165C46.1744 28.0865 46.0644 27.7565 45.9344 27.4365C45.9044 27.3265 45.8544 27.2165 45.8144 27.1065C45.8032 27.0847 45.7964 27.0609 45.7945 27.0365C45.6745 26.6865 45.5444 26.3365 45.4044 25.9965V25.9865C45.3344 25.7965 45.2644 25.6065 45.1844 25.4165C45.1244 25.2465 45.0544 25.0665 44.9744 24.8965C44.8344 24.5365 44.6844 24.1865 44.5344 23.8365L44.4744 23.6865C44.3544 23.4065 44.2244 23.1165 44.0944 22.8265L44.0344 22.7065C44.0044 22.6365 43.9744 22.5765 43.9444 22.5065C43.9344 22.4965 43.9344 22.4765 43.9244 22.4665C43.7944 22.1565 43.6444 21.8465 43.4944 21.5365C43.4791 21.5109 43.4657 21.4842 43.4544 21.4565C43.4144 21.3765 43.3644 21.2865 43.3244 21.1965C42.9044 20.3265 42.4644 19.4765 41.9944 18.6365C41.8544 18.3765 41.7144 18.1165 41.5644 17.8665C41.5044 17.7465 41.4344 17.6265 41.3644 17.5065C41.2344 17.2865 41.1044 17.0765 40.9744 16.8565C40.9144 16.7465 40.8444 16.6365 40.7744 16.5265C40.5044 16.0665 40.2244 15.6165 39.9344 15.1665C39.5844 14.6265 39.2344 14.1065 38.8744 13.5765C38.7644 13.4265 38.6544 13.2765 38.5445 13.1165C38.4911 13.0286 38.431 12.945 38.3644 12.8665C38.1645 12.5765 37.9544 12.2965 37.7444 12.0065C37.6644 11.8865 37.5744 11.7765 37.4844 11.6565L37.3044 11.4165C37.0144 11.0365 36.7244 10.6565 36.4244 10.2865L36.0644 9.83655C35.9444 9.68655 35.8244 9.53653 35.6944 9.38653C35.6144 9.28653 35.5344 9.19653 35.4544 9.09653C35.1744 8.75653 34.8844 8.42653 34.5844 8.09653C34.2744 7.73653 33.9544 7.37655 33.6244 7.02655C33.3144 6.67655 32.9844 6.33655 32.6444 5.99655C32.3244 5.64655 31.9844 5.31654 31.6444 4.98654C31.6344 4.97654 31.6344 4.97655 31.6344 4.96655L31.6244 4.95654C31.2944 4.62654 30.9544 4.30654 30.6044 3.98654C30.4244 3.80654 30.2444 3.64653 30.0644 3.47653L33.6204 1.41754C35.2378 0.488754 37.0704 0 38.9354 0C40.8005 0 42.6331 0.488754 44.2504 1.41754L50.6804 5.12753C50.6919 5.13173 50.7022 5.1386 50.7104 5.14755H50.7204L50.7304 5.15753L70.2004 16.3975L72.5604 17.7575C73.8817 18.5237 75.023 19.5647 75.907 20.8101C76.791 22.0556 77.3972 23.4765 77.6844 24.9765Z" fill="url(#paint0_linear)"/>
<path d="M49.274 47.0266C49.274 47.6566 49.264 48.2866 49.244 48.9166C49.224 49.5366 49.194 50.1665 49.154 50.7865V50.8366C49.114 51.3766 49.074 51.9266 49.024 52.4666L48.994 52.8566C48.984 52.9166 48.984 52.9866 48.974 53.0466C48.924 53.5266 48.864 54.0066 48.804 54.4866C48.804 54.5166 48.794 54.5466 48.794 54.5766C48.724 55.1266 48.644 55.6766 48.554 56.2166C48.534 56.3866 48.504 56.5466 48.474 56.7166C48.464 56.8166 48.444 56.9266 48.424 57.0266C48.4246 57.032 48.4241 57.0375 48.4224 57.0427C48.4206 57.0479 48.4178 57.0526 48.414 57.0566V57.0866C48.284 57.8566 48.144 58.6166 47.974 59.3666C47.904 59.7066 47.824 60.0466 47.744 60.3866C47.644 60.8166 47.544 61.2466 47.434 61.6666C39.2113 65.8308 30.121 67.9929 20.904 67.9766C20.364 67.9766 19.834 67.9666 19.294 67.9566C19.114 67.9466 18.924 67.9466 18.734 67.9366H18.644L17.474 67.8766C17.284 67.8666 17.084 67.8566 16.894 67.8366C16.664 67.8266 16.444 67.8065 16.214 67.7865C15.854 67.7666 15.484 67.7266 15.124 67.6966C15.014 67.6865 14.904 67.6766 14.794 67.6566C14.684 67.6566 14.574 67.6366 14.454 67.6266C14.334 67.6166 14.194 67.5966 14.074 67.5766C14.0437 67.5832 14.0121 67.5797 13.984 67.5665C13.754 67.5466 13.524 67.5166 13.294 67.4866L12.654 67.3966C12.354 67.3666 12.064 67.3166 11.774 67.2666C11.434 67.2166 11.104 67.1665 10.774 67.0965C10.7639 67.0998 10.7532 67.1006 10.7428 67.0989C10.7323 67.0972 10.7225 67.0929 10.714 67.0866C10.264 67.0166 9.824 66.9365 9.394 66.8465C9.34286 66.8379 9.29265 66.8245 9.244 66.8066C9.17888 66.8039 9.11466 66.7904 9.054 66.7666C8.584 66.6766 8.114 66.5765 7.654 66.4766C7.58521 66.4552 7.51505 66.4385 7.444 66.4266C7.24479 66.3872 7.04784 66.3371 6.854 66.2766C6.434 66.1766 6.014 66.0666 5.604 65.9566C5.124 65.8366 4.654 65.7065 4.184 65.5665V65.5566C4.16836 65.5493 4.15123 65.5459 4.134 65.5466H4.12L4.11 65.5365H4.1C4.08436 65.5293 4.06723 65.5259 4.05 65.5266L4.04 65.5166C3.09 65.2366 2.16 64.9366 1.23 64.6066C0.423572 63.0775 0.00142259 61.3752 0 59.6466V26.9766C0.00045417 25.1082 0.492229 23.2728 1.42599 21.6545C2.35976 20.0362 3.70267 18.692 5.32 17.7565L30.06 3.47656C30.24 3.64656 30.42 3.80657 30.6 3.98657C30.95 4.30657 31.29 4.62657 31.62 4.95657L31.63 4.96658C31.63 4.97658 31.63 4.97657 31.64 4.98657C31.98 5.31657 32.31 5.65658 32.64 5.99658C32.97 6.33658 33.3 6.67658 33.62 7.02658C33.94 7.37658 34.27 7.73656 34.58 8.09656C34.88 8.42656 35.17 8.75656 35.45 9.09656C35.53 9.19656 35.61 9.28656 35.69 9.38656C35.82 9.53656 35.94 9.68658 36.06 9.83658L36.42 10.2865C36.72 10.6565 37.01 11.0366 37.3 11.4166L37.48 11.6566C37.57 11.7766 37.66 11.8865 37.74 12.0065C37.95 12.2965 38.16 12.5766 38.36 12.8666C38.4265 12.945 38.4867 13.0286 38.54 13.1166C38.65 13.2666 38.76 13.4166 38.87 13.5766C39.23 14.1066 39.58 14.6266 39.93 15.1666C40.21 15.6166 40.5 16.0666 40.77 16.5266C40.84 16.6366 40.91 16.7466 40.97 16.8566C41.08 17.0266 41.18 17.2066 41.28 17.3866C41.31 17.4266 41.33 17.4665 41.36 17.5065C41.43 17.6265 41.5 17.7466 41.56 17.8666C41.71 18.1166 41.85 18.3766 41.99 18.6366C42.46 19.4766 42.9 20.3266 43.32 21.1966C43.36 21.2866 43.41 21.3766 43.45 21.4566C43.4613 21.4842 43.4747 21.5109 43.49 21.5365C43.64 21.8365 43.78 22.1566 43.92 22.4666C43.93 22.4766 43.93 22.4965 43.94 22.5065C43.97 22.5765 44 22.6366 44.03 22.7066C44.18 23.0366 44.32 23.3566 44.47 23.6866L44.53 23.8366C44.68 24.1866 44.83 24.5366 44.97 24.8966C45.04 25.0666 45.11 25.2466 45.18 25.4166C45.25 25.6066 45.33 25.7966 45.4 25.9866V25.9966C45.54 26.3466 45.66 26.6865 45.79 27.0365C45.792 27.061 45.7988 27.0848 45.81 27.1066C45.85 27.2166 45.9 27.3266 45.93 27.4366C46.06 27.7566 46.17 28.0866 46.27 28.4166C46.3 28.4966 46.32 28.5666 46.34 28.6366C46.36 28.7066 46.38 28.7466 46.4 28.8066C46.49 29.0566 46.56 29.3065 46.64 29.5665C46.65 29.5865 46.65 29.6166 46.66 29.6366C46.69 29.7366 46.72 29.8266 46.75 29.9266C46.7679 29.9718 46.7813 30.0187 46.79 30.0665C46.84 30.2065 46.88 30.3565 46.92 30.5065L47.07 31.0166C47.11 31.1666 47.15 31.3166 47.19 31.4566C47.28 31.7766 47.36 32.0866 47.44 32.3966C47.46 32.4566 47.47 32.5166 47.49 32.5866C47.57 32.9066 47.64 33.2266 47.72 33.5566C47.7381 33.6154 47.7514 33.6756 47.76 33.7366C47.81 33.9166 47.85 34.1065 47.89 34.2865C47.89 34.3065 47.9 34.3266 47.9 34.3566C47.908 34.3795 47.9147 34.4029 47.92 34.4266C47.96 34.6166 48 34.8165 48.04 35.0065V35.0266C48.11 35.3466 48.18 35.6666 48.24 35.9866C48.3 36.3066 48.35 36.5966 48.4 36.9066C48.46 37.2566 48.52 37.5966 48.57 37.9466C48.65 38.4366 48.72 38.9366 48.78 39.4266C48.83 39.7866 48.88 40.1566 48.91 40.5166C48.9249 40.6059 48.9349 40.6961 48.94 40.7865C48.96 40.9665 48.98 41.1365 48.99 41.3165L49.02 41.6166C49.05 41.8866 49.07 42.1566 49.09 42.4366C49.1 42.5866 49.11 42.7266 49.12 42.8766C49.14 43.1066 49.15 43.3466 49.17 43.5766C49.19 43.9866 49.21 44.3966 49.22 44.8066C49.24 45.0266 49.24 45.2566 49.25 45.4866C49.264 45.9966 49.274 46.5066 49.274 47.0266Z" fill="url(#paint1_linear)"/>
<path d="M77.8745 26.9766V59.6466C77.8759 61.5141 77.386 63.3492 76.454 64.9675C75.522 66.5859 74.1806 67.9306 72.5645 68.8666L44.2545 85.1966C42.8246 86.0251 41.2206 86.5072 39.5709 86.6045C37.9213 86.7017 36.2717 86.4113 34.7545 85.7565C34.3644 85.5982 33.9867 85.411 33.6245 85.1966L31.9445 84.2266H31.9345L5.32046 68.8666C3.58783 67.8541 2.17154 66.379 1.23046 64.6066C2.16046 64.9366 3.09046 65.2366 4.04046 65.5166L4.05046 65.5266C4.06769 65.5259 4.08482 65.5293 4.10046 65.5365C4.10814 65.5373 4.11527 65.5409 4.12046 65.5466H4.13047C4.14769 65.5459 4.16482 65.5493 4.18046 65.5566V65.5665C4.65046 65.7065 5.12046 65.8366 5.60046 65.9566C6.07046 66.0966 6.54046 66.2165 7.02046 66.3165C7.23046 66.3765 7.44047 66.4266 7.65047 66.4766C8.18046 66.5965 8.70047 66.7166 9.24047 66.8066C9.28911 66.8245 9.33934 66.8379 9.39047 66.8465C9.84047 66.9465 10.3005 67.0265 10.7705 67.0965C11.1805 67.1765 11.6005 67.2466 12.0205 67.3066C12.1805 67.3366 12.3505 67.3566 12.5205 67.3766C13.0305 67.4566 13.5505 67.5266 14.0705 67.5766C14.2705 67.6066 14.4705 67.6266 14.6605 67.6466C15.2305 67.7066 15.8105 67.7666 16.3805 67.7966C16.4627 67.8131 16.5466 67.8198 16.6305 67.8165C17.3305 67.8765 18.0305 67.9166 18.7305 67.9366C19.4505 67.9666 20.1705 67.9766 20.9005 67.9766C30.1174 67.9929 39.2078 65.8308 47.4305 61.6666C47.4405 61.6666 47.4405 61.6566 47.4505 61.6566C48.8305 60.9666 50.1738 60.2199 51.4805 59.4166C51.7705 59.2466 52.0605 59.0666 52.3405 58.8866C52.4705 58.8066 52.6005 58.7266 52.7305 58.6366C52.8605 58.5466 52.9805 58.4766 53.1105 58.3866C53.4105 58.1966 53.7005 57.9966 54.0005 57.7966C54.0226 57.7868 54.0429 57.7733 54.0605 57.7565C54.4105 57.5266 54.7505 57.2865 55.0905 57.0365C55.1561 56.9967 55.2195 56.9533 55.2805 56.9066C55.3605 56.8466 55.4405 56.7966 55.5205 56.7266C56.0005 56.3866 56.4705 56.0366 56.9405 55.6666C57.1905 55.4766 57.4505 55.2765 57.7005 55.0665C57.8805 54.9265 58.0705 54.7766 58.2505 54.6266C58.3805 54.5166 58.5105 54.4166 58.6405 54.2966C58.7205 54.2366 58.8005 54.1766 58.8805 54.1066C59.6805 53.4266 60.4505 52.7365 61.2105 52.0365C61.5605 51.7065 61.9105 51.3665 62.2405 51.0365C63.2805 50.0165 64.2771 48.9632 65.2305 47.8766C65.4005 47.6866 65.5605 47.4966 65.7205 47.3066C65.9405 47.0666 66.1405 46.8165 66.3505 46.5665C66.4705 46.4165 66.6005 46.2666 66.7205 46.1166C66.7905 46.0366 66.8505 45.9566 66.9105 45.8766C67.0705 45.6766 67.2305 45.4766 67.3805 45.2766C67.5305 45.0966 67.6705 44.9066 67.8205 44.7166C67.8805 44.6266 67.9505 44.5366 68.0205 44.4466C68.1705 44.2566 68.3105 44.0666 68.4505 43.8666C68.9905 43.1366 69.5105 42.3966 70.0105 41.6366C70.2405 41.2966 70.4605 40.9566 70.6805 40.6066C71.0005 40.1066 71.3105 39.6065 71.6105 39.0965C71.8105 38.7665 72.0105 38.4266 72.2005 38.0866C72.9605 36.7466 73.6705 35.3732 74.3305 33.9666C74.4505 33.7066 74.5805 33.4366 74.6905 33.1666C75.0605 32.3666 75.4005 31.5666 75.7205 30.7466L76.1405 29.6666C76.2505 29.3666 76.3605 29.0766 76.4605 28.7766C76.4705 28.7566 76.4805 28.7266 76.4905 28.7066C76.4986 28.6825 76.5087 28.6591 76.5205 28.6366C76.5305 28.6166 76.5405 28.6065 76.5405 28.5965V28.5866C76.5731 28.5053 76.5998 28.4217 76.6205 28.3366C76.6405 28.2966 76.6505 28.2566 76.6705 28.2066C76.7605 27.9566 76.8405 27.7066 76.9205 27.4466C76.9905 27.2566 77.0505 27.0566 77.1205 26.8566C77.1505 26.7666 77.1805 26.6666 77.2005 26.5766C77.2197 26.5423 77.2333 26.5052 77.2405 26.4666C77.3905 25.9766 77.5405 25.4766 77.6805 24.9766C77.8108 25.6352 77.8758 26.3051 77.8745 26.9766Z" fill="url(#paint2_linear)"/>
<g style="mix-blend-mode:multiply" opacity="0.15">
<g style="mix-blend-mode:multiply" opacity="0.15">
<path d="M49.2735 47.0266C49.2812 51.9647 48.6629 56.8839 47.4335 61.6666C34.492 68.1912 19.6 69.7185 5.60352 65.9566C21.2935 67.0266 61.2435 64.3465 30.0635 3.47656C36.1242 8.99566 40.964 15.721 44.2722 23.2209C47.5804 30.7208 49.284 38.8295 49.2735 47.0266Z" fill="black"/>
</g>
</g>
<g style="mix-blend-mode:multiply" opacity="0.15">
<g style="mix-blend-mode:multiply" opacity="0.15">
<path d="M77.6841 24.9765C75.4582 32.8497 71.6221 40.1751 66.4185 46.489C61.2149 52.8028 54.7572 57.9677 47.4541 61.6565C48.1241 61.1265 68.8541 44.5965 70.2041 16.3965L72.5641 17.7565C73.8847 18.5231 75.0253 19.5645 75.9086 20.8101C76.7919 22.0558 77.3974 23.4766 77.6841 24.9765Z" fill="black"/>
</g>
</g>
<g style="mix-blend-mode:multiply" opacity="0.25">
<g style="mix-blend-mode:multiply" opacity="0.25">
<path d="M76.4938 28.7065C71.4059 43.0125 61.0071 54.8114 47.4538 61.6565C47.4486 61.6623 47.4415 61.6658 47.4338 61.6665C34.4922 68.1912 19.6003 69.7185 5.60379 65.9565C5.12379 65.8265 4.65379 65.6965 4.18379 65.5665C4.16379 65.5565 4.14379 65.5565 4.13379 65.5465C4.15102 65.5459 4.16815 65.5493 4.18379 65.5565C4.59379 65.6465 5.85379 65.9465 7.81379 66.3065C11.1304 66.9184 14.4917 67.2561 17.8638 67.3165C18.9038 67.3465 19.9938 67.3365 21.1038 67.3065C22.2438 67.2665 23.4038 67.2065 24.5838 67.1165C27.0655 66.8965 29.5328 66.5359 31.9738 66.0365C34.5822 65.4965 37.1514 64.7816 39.6638 63.8965C42.25 62.9986 44.7696 61.9193 47.2038 60.6665C47.3838 60.5765 47.5638 60.4765 47.7438 60.3865C50 59.2003 52.1838 57.8813 54.2838 56.4365C56.4587 54.8984 58.5453 53.2391 60.5338 51.4665C62.369 49.7819 64.1083 47.9957 65.7438 46.1165C67.3138 44.3165 68.6638 42.5165 69.8738 40.8165C71.0438 39.0865 72.0638 37.4665 72.9238 35.9965C73.3238 35.2465 73.7138 34.5465 74.0638 33.9065C74.4038 33.2465 74.6838 32.6365 74.9538 32.0865C75.5038 30.9865 75.8638 30.0965 76.1438 29.4965C76.3038 29.1265 76.4198 28.8565 76.4938 28.7065Z" fill="black"/>
</g>
</g>
<g style="mix-blend-mode:multiply" opacity="0.25">
<g style="mix-blend-mode:multiply" opacity="0.25">
<path d="M48.5838 54.6866C48.6738 53.1266 48.7538 50.9066 48.6938 48.2565C48.6638 46.9365 48.5238 45.5166 48.4538 43.9666C48.2838 42.4766 48.1338 40.9066 47.8638 39.2766C47.7538 38.4566 47.6138 37.6366 47.4338 36.8066C47.2538 35.9766 47.1038 35.1366 46.8938 34.2966C46.5138 32.6066 46.0238 30.9265 45.4938 29.2565L44.6538 26.7666C44.3338 25.9566 44.0138 25.1465 43.7038 24.3465C43.3538 23.5565 43.0138 22.7666 42.6738 21.9966C42.3338 21.2266 41.9338 20.4866 41.5838 19.7366C41.2338 18.9866 40.8138 18.2965 40.4438 17.5965C40.0738 16.8965 39.6938 16.2166 39.2938 15.5766C38.5238 14.2666 37.7338 13.0766 37.0038 11.9666C36.2338 10.8966 35.5438 9.88658 34.8838 9.02658C34.2138 8.18658 33.6638 7.41656 33.1538 6.81656C32.3138 5.79656 31.7738 5.14656 31.6338 4.97656C38.4262 11.6526 43.5013 19.8741 46.4251 28.9383C49.349 38.0024 50.0348 47.6397 48.4238 57.0266C48.4438 56.7566 48.5138 55.9366 48.5838 54.6866Z" fill="black"/>
</g>
</g>
<g style="mix-blend-mode:screen" opacity="0.4">
<g style="mix-blend-mode:screen" opacity="0.4">
<path d="M50.7139 5.14654C50.5639 5.07654 49.5439 4.56655 47.8539 3.68655C46.9339 3.20655 45.8339 2.60655 44.5539 1.99655C43.1551 1.29469 41.6526 0.821989 40.1039 0.596527C38.3035 0.410744 36.4868 0.72565 34.8539 1.50653C33.3833 2.23707 31.9634 3.06562 30.6039 3.98654C30.5317 4.02623 30.4616 4.06962 30.3939 4.11654C30.0839 4.30654 29.7639 4.50653 29.4439 4.69653C25.6539 6.96653 21.5839 9.33654 17.5139 11.7065C15.4639 12.8765 13.4239 14.0365 11.4139 15.1865C9.42391 16.3665 7.34391 17.4065 5.55391 18.5565C3.82377 19.5799 2.42474 21.0796 1.52391 22.8765C0.827011 24.5599 0.470157 26.3646 0.473907 28.1865C0.433907 29.9365 0.383906 31.5765 0.323906 33.0065C0.263906 34.4365 0.213908 35.6965 0.173908 36.7265C0.0839082 38.7865 0.00390625 39.9565 0.00390625 39.9565V26.9765C0.00436042 25.1082 0.496135 23.2728 1.4299 21.6545C2.36366 20.0362 3.70657 18.6919 5.32391 17.7565L30.0639 3.47653L33.6199 1.41754C35.2373 0.488754 37.0698 0 38.9349 0C40.8 0 42.6325 0.488754 44.2499 1.41754L50.6799 5.12753C50.6927 5.13085 50.7044 5.1374 50.7139 5.14654Z" fill="white"/>
</g>
</g>
<g style="mix-blend-mode:multiply" opacity="0.25">
<g style="mix-blend-mode:multiply" opacity="0.25">
<path d="M77.8743 36.1265V59.6464C77.8758 61.514 77.3859 63.3491 76.4539 64.9674C75.5218 66.5858 74.1804 67.9305 72.5643 68.8664L44.2543 85.1964C42.8245 86.0249 41.2205 86.5071 39.5708 86.6044C37.9211 86.7016 36.2716 86.4112 34.7543 85.7564C34.3643 85.5981 33.9866 85.4109 33.6243 85.1964L31.9443 84.2264C32.0443 84.2764 32.1543 84.3365 32.2843 84.4065C32.8143 84.6765 33.5943 85.0664 34.6043 85.4764C35.8095 85.9809 37.0983 86.2556 38.4043 86.2864C40.0743 86.2712 41.7177 85.8672 43.2043 85.1064C44.8543 84.3064 46.5643 83.1564 48.4443 82.0564C50.3043 80.9364 52.2643 79.7564 54.3043 78.5364C58.3643 76.1064 62.7343 73.5764 67.1043 71.0264C69.2963 69.8864 71.4169 68.614 73.4543 67.2164C75.248 65.8205 76.4567 63.806 76.8443 61.5664C77.1463 59.3497 77.28 57.1134 77.2443 54.8765C77.2943 52.7065 77.3443 50.6564 77.3843 48.7564C77.4843 44.9664 77.6343 41.8164 77.7043 39.5964C77.8143 37.3864 77.8743 36.1265 77.8743 36.1265Z" fill="black"/>
</g>
</g>
<g style="mix-blend-mode:screen" opacity="0.4">
<g style="mix-blend-mode:screen" opacity="0.4">
<path d="M4.18352 65.5566V65.5666C4.15625 65.5583 4.12953 65.5483 4.10352 65.5366C4.13096 65.5397 4.15786 65.5464 4.18352 65.5566Z" fill="white"/>
</g>
</g>
<g style="mix-blend-mode:screen" opacity="0.4">
<g style="mix-blend-mode:screen" opacity="0.4">
<path d="M76.5436 28.5964C76.5236 28.6664 76.4236 28.9864 76.2436 29.5364C76.0236 30.1564 75.7936 31.1064 75.3136 32.2364C75.0836 32.8064 74.8536 33.4564 74.5636 34.1364C74.2736 34.8164 73.9336 35.5564 73.5836 36.3364C73.2136 37.1164 72.7836 37.9264 72.3536 38.7964C71.9036 39.6564 71.3636 40.5165 70.8336 41.4365C70.2736 42.3365 69.6736 43.2764 69.0236 44.2164C68.3436 45.1464 67.6836 46.1264 66.8936 47.0664C65.3056 49.0787 63.5815 50.9799 61.7336 52.7564C59.7411 54.6506 57.623 56.4079 55.3936 58.0164C53.0762 59.6438 50.6543 61.117 48.1436 62.4264C45.6058 63.7129 42.9791 64.8157 40.2836 65.7264C37.6811 66.6005 35.0171 67.2791 32.3136 67.7564C29.7903 68.2185 27.237 68.4992 24.6736 68.5964C23.4436 68.6464 22.2536 68.6664 21.1236 68.6364C19.9636 68.6064 18.8636 68.5465 17.8036 68.4664C14.396 68.1843 11.0217 67.5885 7.7236 66.6865C6.5336 66.3764 5.6236 66.0564 4.9936 65.8464C4.6036 65.7164 4.3336 65.6164 4.1836 65.5664C18.664 69.838 34.2308 68.3974 47.6813 61.541C61.1319 54.6846 71.4431 42.9339 76.4936 28.7064C76.5017 28.6824 76.5118 28.659 76.5236 28.6364C76.5336 28.6174 76.5436 28.6064 76.5436 28.5964Z" fill="white"/>
</g>
</g>
<g style="mix-blend-mode:screen" opacity="0.4">
<g style="mix-blend-mode:screen" opacity="0.4">
<path d="M49.934 43.9365C49.924 45.4565 49.934 46.9265 49.834 48.2765C49.6948 50.4469 49.4075 52.6053 48.974 54.7365C48.654 56.2665 48.414 57.1265 48.414 57.1265V57.0565C48.4178 57.0526 48.4207 57.0478 48.4224 57.0427C48.4241 57.0375 48.4247 57.032 48.424 57.0265C48.474 56.7565 48.514 56.4865 48.554 56.2165C48.644 55.6765 48.724 55.1265 48.794 54.5765C48.794 54.5465 48.804 54.5165 48.804 54.4865C48.874 53.9465 48.934 53.3965 48.994 52.8565L49.024 52.4665C49.074 51.9265 49.114 51.3765 49.154 50.8365V50.7865C49.194 50.1665 49.224 49.5365 49.244 48.9165C49.264 48.2965 49.274 47.6565 49.274 47.0265C49.274 45.4865 49.214 43.9565 49.094 42.4365C49.064 42.0565 49.034 41.6865 48.994 41.3165C48.944 40.6865 48.874 40.0565 48.784 39.4265C48.724 38.9365 48.654 38.4365 48.574 37.9465C48.524 37.5965 48.464 37.2565 48.404 36.9065C48.304 36.2765 48.184 35.6365 48.044 35.0065C47.944 34.5165 47.844 34.0365 47.724 33.5565C47.634 33.1665 47.544 32.7765 47.444 32.3965C47.284 31.7665 47.114 31.1365 46.924 30.5065C46.844 30.2065 46.754 29.9265 46.664 29.6365C46.564 29.2965 46.464 28.9665 46.344 28.6365C46.324 28.5665 46.304 28.4965 46.274 28.4165C46.134 27.9765 45.984 27.5365 45.814 27.1065C45.554 26.3665 45.274 25.6265 44.974 24.8965C44.834 24.5365 44.684 24.1865 44.534 23.8365C44.354 23.3965 44.154 22.9465 43.944 22.5065C43.754 22.0665 43.544 21.6365 43.324 21.1965C42.904 20.3265 42.464 19.4765 41.994 18.6365C41.604 17.9165 41.204 17.2165 40.774 16.5265C39.4634 14.3528 38.0102 12.2682 36.424 10.2865C36.194 9.98653 35.944 9.68653 35.694 9.38653C35.614 9.28653 35.534 9.19653 35.454 9.09653C35.174 8.75653 34.884 8.42653 34.584 8.09653C34.274 7.73653 33.954 7.37655 33.624 7.02655C33.314 6.67655 32.984 6.33655 32.644 5.99655C32.324 5.64655 31.984 5.31654 31.644 4.98654C31.634 4.97654 31.624 4.96654 31.624 4.95654C31.774 5.07654 32.414 5.64654 33.444 6.54654C35.0343 8.02846 36.5306 9.60821 37.924 11.2765C38.764 12.3365 39.684 13.4765 40.544 14.7665C41.004 15.3965 41.444 16.0665 41.864 16.7665C42.284 17.4665 42.744 18.1565 43.134 18.9065C43.964 20.3865 44.764 21.9565 45.484 23.5865C45.814 24.4165 46.154 25.2465 46.494 26.0865C46.794 26.9365 47.094 27.7865 47.394 28.6465C47.924 30.3765 48.404 32.1265 48.774 33.8765C48.9774 34.7346 49.1376 35.6024 49.254 36.4765C49.414 37.3365 49.524 38.1965 49.604 39.0365C49.834 40.7175 49.864 42.3765 49.934 43.9365Z" fill="white"/>
</g>
</g>
</g>
<defs>
<filter id="filter0_i" x="0" y="0" width="77.8745" height="90.6228" filterUnits="userSpaceOnUse" color-interpolation-filters="sRGB">
<feFlood flood-opacity="0" result="BackgroundImageFix"/>
<feBlend mode="normal" in="SourceGraphic" in2="BackgroundImageFix" result="shape"/>
<feColorMatrix in="SourceAlpha" type="matrix" values="0 0 0 0 0 0 0 0 0 0 0 0 0 0 0 0 0 0 127 0" result="hardAlpha"/>
<feOffset dy="4"/>
<feGaussianBlur stdDeviation="2"/>
<feComposite in2="hardAlpha" operator="arithmetic" k2="-1" k3="1"/>
<feColorMatrix type="matrix" values="0 0 0 0 0 0 0 0 0 0 0 0 0 0 0 0 0 0 0.25 0"/>
<feBlend mode="normal" in2="shape" result="effect1_innerShadow"/>
</filter>
<linearGradient id="paint0_linear" x1="53.8744" y1="59.2615" x2="53.8744" y2="9.24998" gradientUnits="userSpaceOnUse">
<stop/>
<stop offset="1" stop-color="#C5C5C5"/>
</linearGradient>
<linearGradient id="paint1_linear" x1="44.3466" y1="53.0771" x2="-0.0836465" y2="35.8799" gradientUnits="userSpaceOnUse">
<stop/>
<stop offset="1" stop-color="#C5C5C5"/>
</linearGradient>
<linearGradient id="paint2_linear" x1="68.2173" y1="41.1279" x2="34.8187" y2="83.472" gradientUnits="userSpaceOnUse">
<stop/>
<stop offset="1" stop-color="#C5C5C5"/>
</linearGradient>
</defs>
</svg>
