<svg width="79" height="87" viewBox="0 0 79 87" fill="none" xmlns="http://www.w3.org/2000/svg">
<path d="M78.6805 24.977C78.5406 25.477 78.3905 25.977 78.2405 26.467C78.2333 26.5057 78.2198 26.5428 78.2005 26.577C78.1905 26.617 78.1805 26.657 78.1705 26.687C78.1506 26.7427 78.1339 26.7994 78.1205 26.857C78.0405 27.107 77.9605 27.347 77.8805 27.577C77.8205 27.757 77.7605 27.937 77.7005 28.107C77.6733 28.2057 77.6399 28.3025 77.6005 28.397C77.5866 28.4621 77.5665 28.5257 77.5406 28.587V28.597C77.5406 28.607 77.5305 28.617 77.5205 28.637C77.5087 28.6595 77.4987 28.683 77.4905 28.707C77.4805 28.727 77.4705 28.757 77.4605 28.777C77.3505 29.087 77.2405 29.407 77.1205 29.717C77.0005 30.027 76.8806 30.357 76.7505 30.667C76.5305 31.237 76.2905 31.807 76.0505 32.367C75.9405 32.637 75.8205 32.907 75.6905 33.167C75.5805 33.437 75.4605 33.707 75.3305 33.967C75.3105 34.007 75.2905 34.057 75.2705 34.097C74.9905 34.707 74.6905 35.307 74.3805 35.897C74.3399 35.9933 74.2932 36.0868 74.2405 36.177C73.9105 36.817 73.5705 37.437 73.2105 38.057C73.2007 38.0984 73.18 38.1364 73.1505 38.167C72.9805 38.487 72.7906 38.797 72.6105 39.097C72.3705 39.507 72.1305 39.907 71.8705 40.307C71.8105 40.407 71.7505 40.507 71.6805 40.607C71.4706 40.947 71.2405 41.297 71.0105 41.637C70.5605 42.317 70.1006 42.987 69.6105 43.647C69.5872 43.6916 69.5568 43.7321 69.5205 43.767C69.4472 43.8817 69.367 43.9919 69.2805 44.097C69.2705 44.117 69.2505 44.137 69.2405 44.157C69.1705 44.257 69.0905 44.357 69.0205 44.447C68.9505 44.537 68.8905 44.627 68.8205 44.717C68.8106 44.737 68.7905 44.757 68.7805 44.777C68.7205 44.857 68.6605 44.927 68.5905 45.007C68.4505 45.197 68.3105 45.377 68.1605 45.557C68.0828 45.6679 67.9993 45.7748 67.9105 45.877C67.8505 45.957 67.7905 46.037 67.7205 46.117C67.6505 46.197 67.5805 46.287 67.5105 46.367C67.4605 46.437 67.4005 46.507 67.3505 46.567L67.3305 46.587C67.2305 46.707 67.1405 46.827 67.0406 46.937C66.8205 47.197 66.6005 47.457 66.3705 47.717C66.3205 47.777 66.2805 47.827 66.2305 47.877C66.1901 47.9295 66.1467 47.9795 66.1005 48.027C65.8605 48.307 65.6105 48.577 65.3505 48.857C65.2905 48.927 65.2305 48.997 65.1605 49.067C65.0905 49.137 65.0205 49.217 64.9505 49.287C64.8105 49.437 64.6705 49.587 64.5205 49.737C64.4559 49.8153 64.3857 49.8888 64.3105 49.957C63.9705 50.317 63.6105 50.677 63.2405 51.037C63.0805 51.197 62.9105 51.367 62.7305 51.537C61.8005 52.437 60.8405 53.297 59.8405 54.137C59.8131 54.1634 59.7829 54.1869 59.7505 54.207C59.5905 54.347 59.4205 54.487 59.2505 54.627C59.1105 54.747 58.9605 54.867 58.8105 54.987C58.7705 55.017 58.7305 55.047 58.7005 55.067C58.4505 55.277 58.1905 55.477 57.9405 55.667C57.5705 55.957 57.2005 56.237 56.8305 56.507C56.7305 56.587 56.6205 56.657 56.5205 56.727C56.483 56.7602 56.4429 56.7903 56.4005 56.817C56.3816 56.8391 56.3576 56.8563 56.3305 56.867C56.2505 56.927 56.1705 56.987 56.0905 57.037C55.8405 57.217 55.6005 57.387 55.3505 57.557C55.2386 57.6438 55.1218 57.7239 55.0005 57.797C54.7006 57.997 54.4105 58.197 54.1105 58.387C53.9806 58.477 53.8605 58.557 53.7305 58.637C53.6005 58.717 53.4705 58.807 53.3405 58.887C53.1605 58.997 52.9805 59.117 52.8005 59.217C52.7 59.293 52.5929 59.3599 52.4805 59.417L52.3305 59.507C52.2705 59.547 52.2005 59.587 52.1405 59.627C51.3305 60.107 50.5105 60.567 49.6805 61.017C49.3405 61.197 48.9905 61.377 48.6405 61.557C48.5793 61.5942 48.5159 61.6276 48.4505 61.657C48.4405 61.657 48.4405 61.667 48.4305 61.667C48.5406 61.247 48.6405 60.817 48.7405 60.387C48.8205 60.047 48.9005 59.707 48.9705 59.367C49.1405 58.617 49.2805 57.857 49.4105 57.087V57.057C49.4143 57.0531 49.4172 57.0483 49.4189 57.0432C49.4206 57.038 49.4212 57.0325 49.4205 57.027C49.4405 56.927 49.4605 56.817 49.4705 56.717C49.5005 56.547 49.5305 56.387 49.5505 56.217C49.6405 55.677 49.7206 55.127 49.7906 54.577C49.7906 54.547 49.8005 54.517 49.8005 54.487C49.8605 54.007 49.9205 53.527 49.9705 53.047C49.9805 52.987 49.9805 52.917 49.9905 52.857L50.0205 52.467C50.0705 51.927 50.1105 51.377 50.1505 50.837V50.787C50.1905 50.167 50.2205 49.537 50.2405 48.917C50.2605 48.297 50.2705 47.657 50.2705 47.027C50.2705 46.507 50.2605 45.997 50.2505 45.487C50.2405 45.257 50.2405 45.037 50.2205 44.807C50.2105 44.397 50.1905 43.987 50.1705 43.577C50.1505 43.347 50.1405 43.107 50.1205 42.877C50.1105 42.727 50.1005 42.587 50.0905 42.437C50.0705 42.157 50.0505 41.887 50.0205 41.617L49.9905 41.317C49.9805 41.147 49.9605 40.967 49.9405 40.787C49.9355 40.6965 49.9255 40.6064 49.9105 40.517C49.8805 40.157 49.8305 39.787 49.7805 39.427C49.7205 38.937 49.6505 38.437 49.5705 37.947C49.5205 37.597 49.4605 37.257 49.4005 36.907C49.3505 36.597 49.3005 36.297 49.2405 35.987C49.1805 35.677 49.1105 35.347 49.0406 35.027V35.007C49.0005 34.817 48.9605 34.617 48.9205 34.427C48.9105 34.377 48.9005 34.337 48.8905 34.287C48.8505 34.107 48.8105 33.917 48.7605 33.737C48.752 33.6761 48.7386 33.6159 48.7205 33.557C48.6405 33.227 48.5705 32.907 48.4905 32.587C48.4705 32.517 48.4605 32.457 48.4405 32.397C48.3605 32.087 48.2805 31.777 48.1905 31.457C48.1505 31.317 48.1105 31.167 48.0705 31.017L47.9205 30.507C47.8805 30.357 47.8405 30.207 47.7906 30.067C47.7819 30.0191 47.7685 29.9723 47.7505 29.927C47.7205 29.827 47.6905 29.737 47.6605 29.637C47.6505 29.617 47.6505 29.587 47.6405 29.567C47.5605 29.307 47.4905 29.057 47.4005 28.807C47.3805 28.747 47.3605 28.697 47.3405 28.637C47.3205 28.577 47.3005 28.497 47.2705 28.417C47.1705 28.087 47.0605 27.757 46.9305 27.437C46.9005 27.327 46.8505 27.217 46.8105 27.107C46.7993 27.0852 46.7925 27.0614 46.7906 27.037C46.6706 26.687 46.5405 26.337 46.4005 25.997V25.987C46.3305 25.797 46.2605 25.607 46.1805 25.417C46.1205 25.247 46.0505 25.067 45.9705 24.897C45.8305 24.537 45.6805 24.187 45.5305 23.837L45.4705 23.687C45.3505 23.407 45.2205 23.117 45.0905 22.827L45.0305 22.707C45.0005 22.637 44.9705 22.577 44.9405 22.507C44.9305 22.497 44.9305 22.477 44.9205 22.467C44.7905 22.157 44.6405 21.847 44.4905 21.537C44.4752 21.5114 44.4618 21.4847 44.4505 21.457C44.4105 21.377 44.3605 21.287 44.3205 21.197C43.9005 20.327 43.4605 19.477 42.9905 18.637C42.8505 18.377 42.7105 18.117 42.5605 17.867C42.5005 17.747 42.4305 17.627 42.3605 17.507C42.2305 17.287 42.1005 17.077 41.9705 16.857C41.9105 16.747 41.8405 16.637 41.7705 16.527C41.5005 16.067 41.2205 15.617 40.9305 15.167C40.5805 14.627 40.2305 14.107 39.8705 13.577C39.7605 13.427 39.6505 13.277 39.5406 13.117C39.4872 13.0291 39.4271 12.9455 39.3605 12.867C39.1606 12.577 38.9505 12.297 38.7405 12.007C38.6605 11.887 38.5705 11.777 38.4805 11.657L38.3005 11.417C38.0105 11.037 37.7205 10.657 37.4205 10.287L37.0605 9.83704C36.9405 9.68704 36.8205 9.53702 36.6905 9.38702C36.6105 9.28702 36.5305 9.19702 36.4505 9.09702C36.1705 8.75702 35.8805 8.42702 35.5805 8.09702C35.2705 7.73702 34.9505 7.37704 34.6205 7.02704C34.3105 6.67704 33.9805 6.33704 33.6405 5.99704C33.3205 5.64704 32.9805 5.31703 32.6405 4.98703C32.6305 4.97703 32.6305 4.97704 32.6305 4.96704L32.6205 4.95703C32.2905 4.62703 31.9505 4.30703 31.6005 3.98703C31.4205 3.80703 31.2405 3.64702 31.0605 3.47702L34.6165 1.41803C36.2339 0.489242 38.0665 0.000488281 39.9315 0.000488281C41.7966 0.000488281 43.6292 0.489242 45.2465 1.41803L51.6765 5.12802C51.688 5.13222 51.6983 5.13909 51.7065 5.14804H51.7165L51.7265 5.15802L71.1965 16.398L73.5565 17.758C74.8778 18.5242 76.0191 19.5652 76.9031 20.8106C77.7871 22.0561 78.3933 23.477 78.6805 24.977Z" fill="url(#paint0_linear)"/>
<path d="M50.2701 47.0271C50.2701 47.6571 50.2601 48.2871 50.2401 48.9171C50.2201 49.5371 50.1901 50.167 50.1501 50.787V50.8371C50.1101 51.3771 50.0701 51.9271 50.0201 52.4671L49.9901 52.8571C49.9801 52.9171 49.9801 52.9871 49.9701 53.0471C49.9201 53.5271 49.8601 54.0071 49.8001 54.4871C49.8001 54.5171 49.7901 54.5471 49.7901 54.5771C49.7201 55.1271 49.6401 55.6771 49.5501 56.2171C49.5301 56.3871 49.5001 56.5471 49.4701 56.7171C49.4601 56.8171 49.4401 56.9271 49.4201 57.0271C49.4207 57.0325 49.4202 57.038 49.4185 57.0432C49.4167 57.0484 49.4139 57.0531 49.4101 57.0571V57.0871C49.2801 57.8571 49.1401 58.6171 48.9701 59.3671C48.9001 59.7071 48.8201 60.0471 48.7401 60.3871C48.6401 60.8171 48.5401 61.2471 48.4301 61.6671C40.2074 65.8313 31.1171 67.9934 21.9001 67.9771C21.3601 67.9771 20.8301 67.9671 20.2901 67.9571C20.1101 67.9471 19.9201 67.9471 19.7301 67.9371H19.6401L18.4701 67.8771C18.2801 67.8671 18.0801 67.8571 17.8901 67.8371C17.6601 67.8271 17.4401 67.807 17.2101 67.787C16.8501 67.7671 16.4801 67.7271 16.1201 67.6971C16.0101 67.687 15.9001 67.6771 15.7901 67.6571C15.6801 67.6571 15.5701 67.6371 15.4501 67.6271C15.3301 67.6171 15.1901 67.5971 15.0701 67.5771C15.0398 67.5837 15.0082 67.5802 14.9801 67.567C14.7501 67.5471 14.5201 67.5171 14.2901 67.4871L13.6501 67.3971C13.3501 67.3671 13.0601 67.3171 12.7701 67.2671C12.4301 67.2171 12.1001 67.167 11.7701 67.097C11.76 67.1003 11.7493 67.1011 11.7389 67.0994C11.7284 67.0977 11.7186 67.0934 11.7101 67.0871C11.2601 67.0171 10.8201 66.937 10.3901 66.847C10.3389 66.8384 10.2887 66.825 10.2401 66.8071C10.175 66.8044 10.1107 66.7909 10.0501 66.7671C9.58009 66.6771 9.11009 66.577 8.65009 66.4771C8.5813 66.4557 8.51114 66.439 8.44009 66.4271C8.24088 66.3877 8.04393 66.3376 7.85009 66.2771C7.43009 66.1771 7.01009 66.0671 6.60009 65.9571C6.12009 65.8371 5.65009 65.707 5.18009 65.567V65.5571C5.16445 65.5498 5.14732 65.5464 5.13009 65.5471H5.11609L5.10609 65.537H5.09609C5.08045 65.5298 5.06332 65.5264 5.04609 65.5271L5.03609 65.5171C4.08609 65.2371 3.15609 64.9371 2.22609 64.6071C1.41967 63.078 0.997516 61.3757 0.996094 59.6471V26.9771C0.996548 25.1087 1.48832 23.2733 2.42208 21.655C3.35585 20.0367 4.69876 18.6925 6.31609 17.757L31.0561 3.47705C31.2361 3.64705 31.4161 3.80706 31.5961 3.98706C31.9461 4.30706 32.2861 4.62706 32.6161 4.95706L32.6261 4.96707C32.6261 4.97707 32.6261 4.97706 32.6361 4.98706C32.9761 5.31706 33.3061 5.65707 33.6361 5.99707C33.9661 6.33707 34.2961 6.67707 34.6161 7.02707C34.9361 7.37707 35.2661 7.73705 35.5761 8.09705C35.8761 8.42705 36.1661 8.75705 36.4461 9.09705C36.5261 9.19705 36.6061 9.28705 36.6861 9.38705C36.8161 9.53705 36.9361 9.68707 37.0561 9.83707L37.4161 10.287C37.7161 10.657 38.0061 11.0371 38.2961 11.4171L38.4761 11.6571C38.5661 11.7771 38.6561 11.887 38.7361 12.007C38.9461 12.297 39.1561 12.5771 39.3561 12.8671C39.4226 12.9455 39.4828 13.0291 39.5361 13.1171C39.6461 13.2671 39.7561 13.4171 39.8661 13.5771C40.2261 14.1071 40.5761 14.6271 40.9261 15.1671C41.2061 15.6171 41.4961 16.0671 41.7661 16.5271C41.8361 16.6371 41.9061 16.7471 41.9661 16.8571C42.0761 17.0271 42.1761 17.2071 42.2761 17.3871C42.3061 17.4271 42.3261 17.467 42.3561 17.507C42.4261 17.627 42.4961 17.7471 42.5561 17.8671C42.7061 18.1171 42.8461 18.3771 42.9861 18.6371C43.4561 19.4771 43.8961 20.3271 44.3161 21.1971C44.3561 21.2871 44.4061 21.3771 44.4461 21.4571C44.4574 21.4847 44.4708 21.5114 44.4861 21.537C44.6361 21.837 44.7761 22.1571 44.9161 22.4671C44.9261 22.4771 44.9261 22.497 44.9361 22.507C44.9661 22.577 44.9961 22.6371 45.0261 22.7071C45.1761 23.0371 45.3161 23.3571 45.4661 23.6871L45.5261 23.8371C45.6761 24.1871 45.8261 24.5371 45.9661 24.8971C46.0361 25.0671 46.1061 25.2471 46.1761 25.4171C46.2461 25.6071 46.3261 25.7971 46.3961 25.9871V25.9971C46.5361 26.3471 46.6561 26.687 46.7861 27.037C46.7881 27.0615 46.7949 27.0853 46.8061 27.1071C46.8461 27.2171 46.8961 27.3271 46.9261 27.4371C47.0561 27.7571 47.1661 28.0871 47.2661 28.4171C47.2961 28.4971 47.3161 28.5671 47.3361 28.6371C47.3561 28.7071 47.3761 28.7471 47.3961 28.8071C47.4861 29.0571 47.5561 29.307 47.6361 29.567C47.6461 29.587 47.6461 29.6171 47.6561 29.6371C47.6861 29.7371 47.7161 29.8271 47.7461 29.9271C47.764 29.9723 47.7774 30.0192 47.7861 30.067C47.8361 30.207 47.8761 30.357 47.9161 30.507L48.0661 31.0171C48.1061 31.1671 48.1461 31.3171 48.1861 31.4571C48.2761 31.7771 48.3561 32.0871 48.4361 32.3971C48.4561 32.4571 48.4661 32.5171 48.4861 32.5871C48.5661 32.9071 48.6361 33.2271 48.7161 33.5571C48.7342 33.6159 48.7475 33.6761 48.7561 33.7371C48.8061 33.9171 48.8461 34.107 48.8861 34.287C48.8861 34.307 48.8961 34.3271 48.8961 34.3571C48.9041 34.38 48.9108 34.4034 48.9161 34.4271C48.9561 34.6171 48.9961 34.817 49.0361 35.007V35.0271C49.1061 35.3471 49.1761 35.6671 49.2361 35.9871C49.2961 36.3071 49.3461 36.5971 49.3961 36.9071C49.4561 37.2571 49.5161 37.5971 49.5661 37.9471C49.6461 38.4371 49.7161 38.9371 49.7761 39.4271C49.8261 39.7871 49.8761 40.1571 49.9061 40.5171C49.921 40.6064 49.931 40.6966 49.9361 40.787C49.9561 40.967 49.9761 41.137 49.9861 41.317L50.0161 41.6171C50.0461 41.8871 50.0661 42.1571 50.0861 42.4371C50.0961 42.5871 50.1061 42.7271 50.1161 42.8771C50.1361 43.1071 50.1461 43.3471 50.1661 43.5771C50.1861 43.9871 50.2061 44.3971 50.2161 44.8071C50.2361 45.0271 50.2361 45.2571 50.2461 45.4871C50.2601 45.9971 50.2701 46.5071 50.2701 47.0271Z" fill="url(#paint1_linear)"/>
<path d="M78.8706 26.9771V59.6471C78.872 61.5146 78.3821 63.3497 77.4501 64.968C76.5181 66.5864 75.1767 67.9311 73.5606 68.8671L45.2506 85.1971C43.8207 86.0256 42.2167 86.5077 40.567 86.605C38.9174 86.7022 37.2678 86.4118 35.7506 85.757C35.3605 85.5987 34.9828 85.4115 34.6206 85.1971L32.9406 84.2271H32.9306L6.31656 68.8671C4.58393 67.8546 3.16764 66.3795 2.22656 64.6071C3.15656 64.9371 4.08656 65.2371 5.03656 65.5171L5.04656 65.5271C5.06379 65.5264 5.08092 65.5298 5.09656 65.537C5.10424 65.5378 5.11137 65.5414 5.11656 65.5471H5.12656C5.14378 65.5464 5.16092 65.5498 5.17656 65.5571V65.567C5.64656 65.707 6.11656 65.8371 6.59656 65.9571C7.06656 66.0971 7.53656 66.217 8.01656 66.317C8.22656 66.377 8.43656 66.4271 8.64656 66.4771C9.17656 66.597 9.69656 66.7171 10.2366 66.8071C10.2852 66.825 10.3354 66.8384 10.3866 66.847C10.8366 66.947 11.2966 67.027 11.7666 67.097C12.1766 67.177 12.5966 67.2471 13.0166 67.3071C13.1766 67.3371 13.3466 67.3571 13.5166 67.3771C14.0266 67.4571 14.5466 67.5271 15.0666 67.5771C15.2666 67.6071 15.4666 67.6271 15.6566 67.6471C16.2266 67.7071 16.8066 67.7671 17.3766 67.7971C17.4588 67.8136 17.5427 67.8203 17.6266 67.817C18.3266 67.877 19.0266 67.9171 19.7266 67.9371C20.4466 67.9671 21.1666 67.9771 21.8966 67.9771C31.1135 67.9934 40.2039 65.8313 48.4266 61.6671C48.4366 61.6671 48.4366 61.6571 48.4466 61.6571C49.8266 60.9671 51.1699 60.2204 52.4766 59.4171C52.7666 59.2471 53.0566 59.0671 53.3366 58.8871C53.4666 58.8071 53.5966 58.7271 53.7266 58.6371C53.8566 58.5471 53.9766 58.4771 54.1066 58.3871C54.4066 58.1971 54.6966 57.9971 54.9966 57.7971C55.0187 57.7873 55.039 57.7738 55.0566 57.757C55.4066 57.5271 55.7466 57.287 56.0866 57.037C56.1522 56.9972 56.2156 56.9538 56.2766 56.9071C56.3566 56.8471 56.4366 56.7971 56.5166 56.7271C56.9966 56.3871 57.4666 56.0371 57.9366 55.6671C58.1866 55.4771 58.4466 55.277 58.6966 55.067C58.8766 54.927 59.0666 54.7771 59.2466 54.6271C59.3766 54.5171 59.5066 54.4171 59.6366 54.2971C59.7166 54.2371 59.7966 54.1771 59.8766 54.1071C60.6766 53.4271 61.4466 52.737 62.2066 52.037C62.5566 51.707 62.9066 51.367 63.2366 51.037C64.2766 50.017 65.2732 48.9637 66.2266 47.8771C66.3966 47.6871 66.5566 47.4971 66.7166 47.3071C66.9366 47.0671 67.1366 46.817 67.3466 46.567C67.4666 46.417 67.5966 46.2671 67.7166 46.1171C67.7866 46.0371 67.8466 45.9571 67.9066 45.8771C68.0666 45.6771 68.2266 45.4771 68.3766 45.2771C68.5266 45.0971 68.6666 44.9071 68.8166 44.7171C68.8766 44.6271 68.9466 44.5371 69.0166 44.4471C69.1666 44.2571 69.3066 44.0671 69.4466 43.8671C69.9866 43.1371 70.5066 42.3971 71.0066 41.6371C71.2366 41.2971 71.4566 40.9571 71.6766 40.6071C71.9966 40.1071 72.3066 39.607 72.6066 39.097C72.8066 38.767 73.0066 38.4271 73.1966 38.0871C73.9566 36.7471 74.6666 35.3737 75.3266 33.9671C75.4466 33.7071 75.5766 33.4371 75.6866 33.1671C76.0566 32.3671 76.3966 31.5671 76.7166 30.7471L77.1366 29.6671C77.2466 29.3671 77.3566 29.0771 77.4566 28.7771C77.4666 28.7571 77.4766 28.7271 77.4866 28.7071C77.4947 28.683 77.5048 28.6596 77.5166 28.6371C77.5266 28.6171 77.5366 28.607 77.5366 28.597V28.5871C77.5692 28.5058 77.5959 28.4222 77.6166 28.3371C77.6366 28.2971 77.6466 28.2571 77.6666 28.2071C77.7566 27.9571 77.8366 27.7071 77.9166 27.4471C77.9866 27.2571 78.0466 27.0571 78.1166 26.8571C78.1466 26.7671 78.1766 26.6671 78.1966 26.5771C78.2158 26.5428 78.2294 26.5057 78.2366 26.4671C78.3866 25.9771 78.5366 25.4771 78.6766 24.9771C78.8069 25.6357 78.8719 26.3056 78.8706 26.9771Z" fill="url(#paint2_linear)"/>
<g style="mix-blend-mode:multiply" opacity="0.15">
<g style="mix-blend-mode:multiply" opacity="0.15">
<path d="M50.2696 47.0271C50.2773 51.9652 49.659 56.8844 48.4296 61.6671C35.4881 68.1917 20.5961 69.719 6.59961 65.9571C22.2896 67.0271 62.2396 64.347 31.0596 3.47705C37.1203 8.99615 41.9601 15.7215 45.2683 23.2214C48.5765 30.7213 50.2801 38.83 50.2696 47.0271Z" fill="black"/>
</g>
</g>
<g style="mix-blend-mode:multiply" opacity="0.15">
<g style="mix-blend-mode:multiply" opacity="0.15">
<path d="M78.6802 24.977C76.4543 32.8502 72.6182 40.1756 67.4146 46.4895C62.211 52.8033 55.7533 57.9682 48.4502 61.657C49.1202 61.127 69.8502 44.597 71.2002 16.397L73.5602 17.757C74.8808 18.5236 76.0214 19.565 76.9047 20.8106C77.788 22.0563 78.3935 23.4771 78.6802 24.977Z" fill="black"/>
</g>
</g>
<g style="mix-blend-mode:multiply" opacity="0.25">
<g style="mix-blend-mode:multiply" opacity="0.25">
<path d="M77.4899 28.707C72.402 43.013 62.0032 54.8119 48.4499 61.657C48.4447 61.6628 48.4376 61.6663 48.4299 61.667C35.4883 68.1917 20.5964 69.719 6.59988 65.957C6.11988 65.827 5.64988 65.697 5.17988 65.567C5.15988 65.557 5.13988 65.557 5.12988 65.547C5.14711 65.5464 5.16424 65.5498 5.17988 65.557C5.58988 65.647 6.84988 65.947 8.80988 66.307C12.1265 66.9189 15.4878 67.2566 18.8599 67.317C19.8999 67.347 20.9899 67.337 22.0999 67.307C23.2399 67.267 24.3999 67.207 25.5799 67.117C28.0616 66.897 30.5289 66.5364 32.9699 66.037C35.5783 65.497 38.1475 64.7821 40.6599 63.897C43.2461 62.9991 45.7657 61.9198 48.1999 60.667C48.3799 60.577 48.5599 60.477 48.7399 60.387C50.9961 59.2008 53.1799 57.8818 55.2799 56.437C57.4548 54.8989 59.5414 53.2396 61.5299 51.467C63.3651 49.7824 65.1044 47.9962 66.7399 46.117C68.3099 44.317 69.6599 42.517 70.8699 40.817C72.0399 39.087 73.0599 37.467 73.9199 35.997C74.3199 35.247 74.7099 34.547 75.0599 33.907C75.3999 33.247 75.6799 32.637 75.9499 32.087C76.4999 30.987 76.8599 30.097 77.1399 29.497C77.2999 29.127 77.4159 28.857 77.4899 28.707Z" fill="black"/>
</g>
</g>
<g style="mix-blend-mode:multiply" opacity="0.25">
<g style="mix-blend-mode:multiply" opacity="0.25">
<path d="M49.5799 54.6871C49.6699 53.1271 49.7499 50.9071 49.6899 48.257C49.6599 46.937 49.5199 45.5171 49.4499 43.9671C49.2799 42.4771 49.1299 40.9071 48.8599 39.2771C48.7499 38.4571 48.6099 37.6371 48.4299 36.8071C48.2499 35.9771 48.0999 35.1371 47.8899 34.2971C47.5099 32.6071 47.0199 30.927 46.4899 29.257L45.6499 26.7671C45.3299 25.9571 45.0099 25.147 44.6999 24.347C44.3499 23.557 44.0099 22.7671 43.6699 21.9971C43.3299 21.2271 42.9299 20.4871 42.5799 19.7371C42.2299 18.9871 41.8099 18.297 41.4399 17.597C41.0699 16.897 40.6899 16.2171 40.2899 15.5771C39.5199 14.2671 38.7299 13.0771 37.9999 11.9671C37.2299 10.8971 36.5399 9.88707 35.8799 9.02707C35.2099 8.18707 34.6599 7.41705 34.1499 6.81705C33.3099 5.79705 32.7699 5.14705 32.6299 4.97705C39.4223 11.6531 44.4974 19.8746 47.4212 28.9388C50.3451 38.0029 51.0309 47.6402 49.4199 57.0271C49.4399 56.7571 49.5099 55.9371 49.5799 54.6871Z" fill="black"/>
</g>
</g>
<g style="mix-blend-mode:screen" opacity="0.4">
<g style="mix-blend-mode:screen" opacity="0.4">
<path d="M51.71 5.14703C51.56 5.07703 50.54 4.56704 48.85 3.68704C47.93 3.20704 46.83 2.60704 45.55 1.99704C44.1512 1.29518 42.6487 0.822477 41.1 0.597015C39.2996 0.411232 37.4829 0.726138 35.85 1.50702C34.3794 2.23756 32.9595 3.06611 31.6 3.98703C31.5278 4.02672 31.4577 4.07011 31.39 4.11703C31.08 4.30703 30.76 4.50702 30.44 4.69702C26.65 6.96702 22.58 9.33703 18.51 11.707C16.46 12.877 14.42 14.037 12.41 15.187C10.42 16.367 8.34 17.407 6.55 18.557C4.81986 19.5804 3.42083 21.0801 2.52 22.877C1.8231 24.5604 1.46625 26.3651 1.47 28.187C1.43 29.937 1.38 31.577 1.32 33.007C1.26 34.437 1.21 35.697 1.17 36.727C1.08 38.787 1 39.957 1 39.957V26.977C1.00045 25.1087 1.49223 23.2733 2.42599 21.655C3.35975 20.0367 4.70266 18.6924 6.32 17.757L31.06 3.47702L34.616 1.41803C36.2334 0.489242 38.0659 0.000488281 39.931 0.000488281C41.7961 0.000488281 43.6286 0.489242 45.246 1.41803L51.676 5.12802C51.6888 5.13134 51.7005 5.13789 51.71 5.14703Z" fill="white"/>
</g>
</g>
<g style="mix-blend-mode:multiply" opacity="0.25">
<g style="mix-blend-mode:multiply" opacity="0.25">
<path d="M78.8704 36.127V59.6469C78.8719 61.5145 78.382 63.3496 77.45 64.9679C76.5179 66.5863 75.1765 67.931 73.5604 68.8669L45.2504 85.1969C43.8206 86.0254 42.2166 86.5076 40.5669 86.6049C38.9172 86.7021 37.2677 86.4117 35.7504 85.7569C35.3604 85.5986 34.9827 85.4114 34.6204 85.1969L32.9404 84.2269C33.0404 84.2769 33.1504 84.337 33.2804 84.407C33.8104 84.677 34.5904 85.0669 35.6004 85.4769C36.8056 85.9814 38.0944 86.2561 39.4004 86.2869C41.0704 86.2717 42.7138 85.8677 44.2004 85.1069C45.8504 84.3069 47.5604 83.1569 49.4404 82.0569C51.3004 80.9369 53.2604 79.7569 55.3004 78.5369C59.3604 76.1069 63.7304 73.5769 68.1004 71.0269C70.2924 69.8869 72.413 68.6145 74.4504 67.2169C76.2441 65.821 77.4528 63.8065 77.8404 61.5669C78.1424 59.3502 78.2761 57.1139 78.2404 54.877C78.2904 52.707 78.3404 50.6569 78.3804 48.7569C78.4804 44.9669 78.6304 41.8169 78.7004 39.5969C78.8104 37.3869 78.8704 36.127 78.8704 36.127Z" fill="black"/>
</g>
</g>
<g style="mix-blend-mode:screen" opacity="0.4">
<g style="mix-blend-mode:screen" opacity="0.4">
<path d="M5.17961 65.5571V65.5671C5.15234 65.5588 5.12562 65.5488 5.09961 65.5371C5.12705 65.5402 5.15395 65.5469 5.17961 65.5571Z" fill="white"/>
</g>
</g>
<g style="mix-blend-mode:screen" opacity="0.4">
<g style="mix-blend-mode:screen" opacity="0.4">
<path d="M77.5397 28.5969C77.5197 28.6669 77.4197 28.9869 77.2397 29.5369C77.0197 30.1569 76.7897 31.1069 76.3097 32.2369C76.0797 32.8069 75.8497 33.4569 75.5597 34.1369C75.2697 34.8169 74.9297 35.5569 74.5797 36.3369C74.2097 37.1169 73.7797 37.9269 73.3497 38.7969C72.8997 39.6569 72.3597 40.517 71.8297 41.437C71.2697 42.337 70.6697 43.2769 70.0197 44.2169C69.3397 45.1469 68.6797 46.1269 67.8897 47.0669C66.3017 49.0792 64.5776 50.9804 62.7297 52.7569C60.7372 54.6511 58.6191 56.4084 56.3897 58.0169C54.0723 59.6443 51.6504 61.1175 49.1397 62.4269C46.6019 63.7134 43.9752 64.8162 41.2797 65.7269C38.6772 66.601 36.0132 67.2796 33.3097 67.7569C30.7864 68.219 28.2331 68.4997 25.6697 68.5969C24.4397 68.6469 23.2497 68.6669 22.1197 68.6369C20.9597 68.6069 19.8597 68.547 18.7997 68.4669C15.3921 68.1848 12.0178 67.589 8.71969 66.687C7.52969 66.3769 6.61969 66.0569 5.98969 65.8469C5.59969 65.7169 5.32969 65.6169 5.17969 65.5669C19.6601 69.8385 35.2269 68.3979 48.6774 61.5415C62.128 54.6851 72.4392 42.9344 77.4897 28.7069C77.4978 28.6829 77.5079 28.6595 77.5197 28.6369C77.5297 28.6179 77.5397 28.6069 77.5397 28.5969Z" fill="white"/>
</g>
</g>
<g style="mix-blend-mode:screen" opacity="0.4">
<g style="mix-blend-mode:screen" opacity="0.4">
<path d="M50.9301 43.937C50.9201 45.457 50.9301 46.927 50.8301 48.277C50.6909 50.4474 50.4036 52.6058 49.9701 54.737C49.6501 56.267 49.4101 57.127 49.4101 57.127V57.057C49.4139 57.0531 49.4168 57.0483 49.4185 57.0432C49.4202 57.038 49.4208 57.0325 49.4201 57.027C49.4701 56.757 49.5101 56.487 49.5501 56.217C49.6401 55.677 49.7201 55.127 49.7901 54.577C49.7901 54.547 49.8001 54.517 49.8001 54.487C49.8701 53.947 49.9301 53.397 49.9901 52.857L50.0201 52.467C50.0701 51.927 50.1101 51.377 50.1501 50.837V50.787C50.1901 50.167 50.2201 49.537 50.2401 48.917C50.2601 48.297 50.2701 47.657 50.2701 47.027C50.2701 45.487 50.2101 43.957 50.0901 42.437C50.0601 42.057 50.0301 41.687 49.9901 41.317C49.9401 40.687 49.8701 40.057 49.7801 39.427C49.7201 38.937 49.6501 38.437 49.5701 37.947C49.5201 37.597 49.4601 37.257 49.4001 36.907C49.3001 36.277 49.1801 35.637 49.0401 35.007C48.9401 34.517 48.8401 34.037 48.7201 33.557C48.6301 33.167 48.5401 32.777 48.4401 32.397C48.2801 31.767 48.1101 31.137 47.9201 30.507C47.8401 30.207 47.7501 29.927 47.6601 29.637C47.5601 29.297 47.4601 28.967 47.3401 28.637C47.3201 28.567 47.3001 28.497 47.2701 28.417C47.1301 27.977 46.9801 27.537 46.8101 27.107C46.5501 26.367 46.2701 25.627 45.9701 24.897C45.8301 24.537 45.6801 24.187 45.5301 23.837C45.3501 23.397 45.1501 22.947 44.9401 22.507C44.7501 22.067 44.5401 21.637 44.3201 21.197C43.9001 20.327 43.4601 19.477 42.9901 18.637C42.6001 17.917 42.2001 17.217 41.7701 16.527C40.4595 14.3533 39.0063 12.2687 37.4201 10.287C37.1901 9.98702 36.9401 9.68702 36.6901 9.38702C36.6101 9.28702 36.5301 9.19702 36.4501 9.09702C36.1701 8.75702 35.8801 8.42702 35.5801 8.09702C35.2701 7.73702 34.9501 7.37704 34.6201 7.02704C34.3101 6.67704 33.9801 6.33704 33.6401 5.99704C33.3201 5.64704 32.9801 5.31703 32.6401 4.98703C32.6301 4.97703 32.6201 4.96703 32.6201 4.95703C32.7701 5.07703 33.4101 5.64703 34.4401 6.54703C36.0304 8.02895 37.5267 9.6087 38.9201 11.277C39.7601 12.337 40.6801 13.477 41.5401 14.767C42.0001 15.397 42.4401 16.067 42.8601 16.767C43.2801 17.467 43.7401 18.157 44.1301 18.907C44.9601 20.387 45.7601 21.957 46.4801 23.587C46.8101 24.417 47.1501 25.247 47.4901 26.087C47.7901 26.937 48.0901 27.787 48.3901 28.647C48.9201 30.377 49.4001 32.127 49.7701 33.877C49.9735 34.7351 50.1337 35.6029 50.2501 36.477C50.4101 37.337 50.5201 38.197 50.6001 39.037C50.8301 40.718 50.8601 42.377 50.9301 43.937Z" fill="white"/>
</g>
</g>
<defs>
<linearGradient id="paint0_linear" x1="54.8705" y1="59.262" x2="54.8705" y2="9.25047" gradientUnits="userSpaceOnUse">
<stop stop-color="#F8A700"/>
<stop offset="1" stop-color="#FCFC53"/>
</linearGradient>
<linearGradient id="paint1_linear" x1="45.3427" y1="53.0776" x2="0.912447" y2="35.8804" gradientUnits="userSpaceOnUse">
<stop stop-color="#F80300"/>
<stop offset="0.033" stop-color="#F81000"/>
<stop offset="0.158" stop-color="#F93F00"/>
<stop offset="0.288" stop-color="#FA6800"/>
<stop offset="0.419" stop-color="#FA8900"/>
<stop offset="0.554" stop-color="#FBA300"/>
<stop offset="0.693" stop-color="#FBB500"/>
<stop offset="0.838" stop-color="#FBC000"/>
<stop offset="1" stop-color="#FCC400"/>
</linearGradient>
<linearGradient id="paint2_linear" x1="69.2134" y1="41.1284" x2="35.8148" y2="83.4725" gradientUnits="userSpaceOnUse">
<stop stop-color="#F80300"/>
<stop offset="0.033" stop-color="#F81000"/>
<stop offset="0.158" stop-color="#F93F00"/>
<stop offset="0.288" stop-color="#FA6800"/>
<stop offset="0.419" stop-color="#FA8900"/>
<stop offset="0.554" stop-color="#FBA300"/>
<stop offset="0.693" stop-color="#FBB500"/>
<stop offset="0.838" stop-color="#FBC000"/>
<stop offset="1" stop-color="#FCC400"/>
</linearGradient>
</defs>
</svg>
