<svg width="214" height="187" viewBox="0 0 214 187" fill="none" xmlns="http://www.w3.org/2000/svg">
<path d="M160.01 186.674V173.34C160.01 171.589 159.665 169.855 158.995 168.237C158.325 166.62 157.343 165.15 156.105 163.911C154.866 162.673 153.396 161.691 151.779 161.021C150.161 160.351 148.427 160.006 146.676 160.006H93.337C75.6552 160.006 58.6976 152.982 46.1945 140.479C33.6915 127.976 26.6673 111.019 26.667 93.337C26.667 84.5818 28.3915 75.9124 31.742 67.8237C35.0925 59.7349 40.0034 52.3854 46.1943 46.1945C52.3852 40.0037 59.7348 35.093 67.8236 31.7426C75.9123 28.3922 84.5818 26.6679 93.337 26.668H146.672C148.423 26.6685 150.158 26.324 151.776 25.6542C153.394 24.9843 154.865 24.0022 156.103 22.764C157.342 21.5257 158.324 20.0556 158.995 18.4376C159.665 16.8196 160.01 15.0854 160.01 13.334V0H93.34C81.0829 -7.03494e-10 68.9458 2.41424 57.6216 7.10487C46.2975 11.7955 36.0082 18.6707 27.3412 27.3378C18.6741 36.005 11.799 46.2944 7.10852 57.6186C2.41801 68.9427 0.003897 81.0799 0.00402833 93.337C0.00402832 118.091 9.83756 141.832 27.3414 159.336C44.8453 176.84 68.5857 186.674 93.34 186.674H160.01Z" fill="url(#paint0_linear)"/>
<path d="M53.335 93.337C53.335 103.946 57.5493 114.12 65.0508 121.621C72.5522 129.123 82.7264 133.337 93.335 133.337H160.01C167.083 133.337 173.865 136.147 178.866 141.148C183.867 146.149 186.677 152.932 186.677 160.005V186.673H213.345V160.006C213.345 145.861 207.726 132.295 197.724 122.292C187.721 112.29 174.155 106.671 160.01 106.671H93.337C89.8006 106.671 86.4091 105.266 83.9084 102.766C81.4078 100.265 80.003 96.8734 80.003 93.337C80.003 89.8006 81.4078 86.4091 83.9084 83.9084C86.4091 81.4078 89.8006 80.003 93.337 80.003H160.01C174.155 80.003 187.721 74.3838 197.724 64.3815C207.726 54.3793 213.345 40.8133 213.345 26.668V0H186.673V26.668C186.673 33.7398 183.864 40.5221 178.864 45.523C173.864 50.5239 167.082 53.3339 160.01 53.335H93.337C88.0838 53.3347 82.882 54.3692 78.0286 56.3794C73.1752 58.3896 68.7653 61.3362 65.0508 65.0507C61.3362 68.7653 58.3897 73.1752 56.3795 78.0286C54.3693 82.882 53.3348 88.0838 53.335 93.337Z" fill="url(#paint1_linear)"/>
<defs>
<linearGradient id="paint0_linear" x1="24.1649" y1="93.337" x2="229.453" y2="93.337" gradientUnits="userSpaceOnUse">
<stop stop-color="#F54A48"/>
<stop offset="1" stop-color="#FA982F"/>
</linearGradient>
<linearGradient id="paint1_linear" x1="24.0532" y1="93.3365" x2="229.506" y2="93.3365" gradientUnits="userSpaceOnUse">
<stop stop-color="#F54A48"/>
<stop offset="1" stop-color="#FA982F"/>
</linearGradient>
</defs>
</svg>
