<svg width="63" height="75" viewBox="0 0 63 75" fill="none" xmlns="http://www.w3.org/2000/svg">
<path d="M53.7921 65.604C47.9921 71.4033 40.126 74.6612 31.9241 74.6612C23.7222 74.6612 15.8561 71.4033 10.0561 65.604C9.75609 65.304 9.46909 65.004 9.18109 64.695C7.64913 63.0322 6.30193 61.2082 5.16309 59.255C5.61409 59.402 6.06309 59.543 6.51709 59.673C6.52799 59.6779 6.53939 59.6816 6.55109 59.684H6.56309C7.04209 59.825 7.51609 59.96 7.99009 60.084C8.10909 60.113 8.22209 60.147 8.33509 60.184C8.78609 60.297 9.23509 60.41 9.69509 60.506C9.82088 60.5435 9.94877 60.5735 10.0781 60.596C10.4231 60.681 10.7781 60.754 11.1281 60.822C11.3711 60.873 11.6281 60.922 11.8621 60.969C12.2231 61.036 12.5781 61.099 12.9391 61.155C13.1771 61.2 13.4021 61.234 13.6451 61.262C13.9501 61.319 14.2601 61.362 14.5711 61.398C14.8411 61.443 15.1121 61.477 15.3891 61.505C15.7671 61.556 16.1451 61.595 16.5341 61.623C16.6921 61.646 16.8561 61.663 17.0251 61.674C17.4371 61.714 17.8491 61.742 18.2671 61.764C18.4871 61.781 18.7071 61.798 18.9381 61.804C19.1691 61.81 19.4181 61.832 19.6611 61.838C20.1121 61.86 20.5691 61.866 21.0271 61.872C21.0833 61.877 21.1399 61.877 21.1961 61.872C21.6361 61.883 22.0821 61.872 22.5221 61.866C22.8221 61.872 23.1151 61.86 23.4021 61.843C23.7301 61.843 24.0511 61.827 24.3731 61.81C24.5591 61.804 24.7401 61.793 24.9151 61.776C25.3441 61.753 25.7731 61.719 26.2011 61.686C26.4211 61.669 26.6471 61.646 26.8671 61.618C27.1831 61.595 27.4941 61.567 27.7991 61.518C28.0991 61.49 28.3991 61.45 28.6901 61.405C28.9551 61.377 29.2211 61.337 29.4751 61.298C29.8131 61.253 30.1461 61.198 30.4751 61.14C30.8041 61.082 31.1521 61.027 31.4911 60.959C31.647 60.9377 31.8016 60.9076 31.9541 60.869C32.4281 60.778 32.9021 60.677 33.3701 60.569C33.9574 60.445 34.5388 60.304 35.1141 60.146C35.3681 60.083 35.6141 60.016 35.8641 59.946C37.8869 59.387 39.8736 58.7047 41.8131 57.903C42.0891 57.796 42.3601 57.683 42.6311 57.559C42.9311 57.44 43.2231 57.305 43.5171 57.169C43.7601 57.062 44.0081 56.949 44.2511 56.831C44.5211 56.707 44.7921 56.571 45.0581 56.442C46.0281 55.967 46.9821 55.465 47.9191 54.923C48.1561 54.788 48.3871 54.658 48.6191 54.517C48.7721 54.432 48.9131 54.348 49.0601 54.257L49.7711 53.817C50.7361 53.217 51.6781 52.576 52.6091 51.904L53.2361 51.447L53.5181 51.233C53.7661 51.0523 54.0088 50.866 54.2461 50.674C54.6071 50.392 54.9681 50.11 55.3181 49.816C55.4181 49.743 55.5041 49.664 55.5951 49.585C55.8371 49.385 56.0801 49.179 56.3171 48.975C56.5541 48.771 56.7971 48.552 57.0341 48.338C57.2031 48.191 57.3671 48.038 57.5341 47.881C58.0761 47.3843 58.6064 46.8763 59.1251 46.357C59.3911 46.091 59.6501 45.832 59.8991 45.557C60.0341 45.422 60.1641 45.292 60.2941 45.151C60.7451 44.665 61.1851 44.18 61.6141 43.684L61.6311 43.667C61.7381 43.548 61.8461 43.43 61.9471 43.305C62.2351 42.972 62.5111 42.639 62.7941 42.305C62.8039 42.2955 62.8115 42.2839 62.8161 42.271C62.8843 43.7239 62.8509 45.1798 62.7161 46.628V46.662C62.7161 46.6679 62.714 46.6736 62.7101 46.678C62.0361 53.8338 58.8815 60.5288 53.7921 65.604Z" fill="url(#paint0_linear)"/>
<path d="M59.1308 46.36C52.3832 53.1125 43.9356 57.9153 34.6819 60.2601C25.4283 62.6049 15.7129 62.4045 6.56384 59.68C6.54776 59.681 6.53174 59.6772 6.51784 59.669H6.50684C6.05584 59.533 5.60684 59.392 5.16384 59.251C3.80759 56.9237 2.76744 54.426 2.07084 51.824C1.56544 49.9438 1.23701 48.0204 1.08984 46.079C1.49584 46.068 1.89684 46.051 2.30284 46.028H2.31384C2.32296 46.0251 2.33273 46.0251 2.34184 46.028H2.34784C15.386 45.3414 27.7062 39.8436 36.9248 30.598C40.9027 26.6219 44.2261 22.0412 46.7718 17.026V17.02C46.7828 17.009 46.7888 16.992 46.7998 16.981L46.7888 16.98C46.7949 16.9676 46.8026 16.9562 46.8118 16.946C47.0428 16.489 47.2688 16.026 47.4838 15.563L53.7928 21.873C59.2444 27.3093 62.4651 34.5883 62.8218 42.279C62.4378 42.753 62.0428 43.216 61.6368 43.679C60.8408 44.593 60.0058 45.485 59.1308 46.36Z" fill="url(#paint1_linear)"/>
<path d="M36.9244 30.598C36.5464 30.976 36.1624 31.348 35.7784 31.71C35.5304 31.947 35.2784 32.172 35.0284 32.404C34.0124 33.3287 32.9627 34.209 31.8794 35.045C31.6024 35.265 31.3264 35.474 31.0434 35.677C30.7054 35.937 30.3614 36.177 30.0114 36.428C29.6834 36.665 29.3564 36.89 29.0184 37.116C28.9384 37.172 28.8544 37.223 28.7754 37.28C28.4984 37.466 28.2104 37.652 27.9284 37.833C26.4607 38.7704 24.9464 39.6329 23.3914 40.417C23.0864 40.575 22.7824 40.722 22.4824 40.863C22.4486 40.8838 22.4127 40.9009 22.3754 40.914C22.0654 41.066 21.7664 41.207 21.4554 41.348C21.3654 41.394 21.2644 41.439 21.1624 41.484C20.8294 41.636 20.4964 41.777 20.1624 41.919C19.7844 42.082 19.4004 42.24 19.0164 42.387C18.6324 42.534 18.2214 42.697 17.8164 42.85C17.4444 42.985 17.0664 43.115 16.6994 43.25C16.2994 43.385 15.9144 43.515 15.5254 43.633C15.1364 43.751 14.7404 43.876 14.3454 43.989C13.9504 44.102 13.5554 44.215 13.1664 44.322C12.7774 44.429 12.3664 44.531 11.9664 44.622C11.5664 44.713 11.1714 44.808 10.7664 44.893C9.96637 45.067 9.16637 45.225 8.36637 45.361C7.56637 45.497 6.75237 45.609 5.94537 45.716C4.74537 45.857 3.54537 45.965 2.33337 46.032H2.32737C2.31637 46.032 2.31637 46.032 2.31037 46.032C2.30971 46.0328 2.30888 46.0335 2.30792 46.034C2.30697 46.0344 2.30593 46.0347 2.30487 46.0347C2.30381 46.0347 2.30276 46.0344 2.30181 46.034C2.30086 46.0335 2.30002 46.0328 2.29937 46.032C1.89337 46.055 1.48137 46.072 1.07537 46.083C0.949708 44.4297 0.957064 42.7691 1.09737 41.117C1.10269 41.1006 1.10473 41.0832 1.10337 41.066C1.71977 33.8106 4.8868 27.0081 10.0424 21.866L31.9244 0L47.4824 15.558C47.2674 16.021 47.0474 16.478 46.8104 16.93V16.941C46.8012 16.9512 46.7934 16.9627 46.7874 16.975L46.7934 16.981L46.7764 16.997C46.773 16.9998 46.7702 17.0033 46.7683 17.0073C46.7664 17.0112 46.7654 17.0156 46.7654 17.02V17.026C46.7492 17.0524 46.7361 17.0806 46.7264 17.11L46.5744 17.398C46.1717 18.186 45.741 18.9667 45.2824 19.74C44.9824 20.265 44.6614 20.79 44.3344 21.309C43.7424 22.251 43.1124 23.186 42.4444 24.114C42.2804 24.334 42.1284 24.554 41.9584 24.768C41.5584 25.304 41.1514 25.835 40.7284 26.36C40.5764 26.56 40.4124 26.76 40.2484 26.941C39.9554 27.302 39.6484 27.658 39.3404 28.008C38.5684 28.894 37.763 29.7573 36.9244 30.598Z" fill="url(#paint2_linear)"/>
<g style="mix-blend-mode:multiply" opacity="0.15">
<g style="mix-blend-mode:multiply" opacity="0.15">
<path d="M2.07084 51.8281C1.56544 49.9479 1.23701 48.0245 1.08984 46.0831C14.5755 45.6939 27.3996 40.1524 36.9248 30.5981C41.2911 26.2361 44.8639 21.1467 47.4828 15.5581C47.4828 15.5581 41.9698 40.7331 2.07084 51.8281Z" fill="black"/>
</g>
</g>
<g style="mix-blend-mode:multiply" opacity="0.15">
<g style="mix-blend-mode:multiply" opacity="0.15">
<path d="M9.18206 64.695C7.65011 63.0322 6.30291 61.2082 5.16406 59.255C14.4729 62.3027 24.4443 62.7106 33.971 60.4334C43.4977 58.1562 52.2067 53.283 59.1311 46.355C60.4296 45.0563 61.6616 43.6925 62.8221 42.269C62.8221 42.269 47.4321 69.39 9.18206 64.695Z" fill="black"/>
</g>
</g>
<g style="mix-blend-mode:multiply" opacity="0.25">
<g style="mix-blend-mode:multiply" opacity="0.25">
<path d="M56.6646 49.1871C56.1686 49.6164 55.6496 50.0677 55.1076 50.5411C54.5596 50.9991 54.0186 51.5411 53.3856 51.9811C52.7656 52.4431 52.1166 52.9231 51.4556 53.4141C50.8066 53.9281 50.0676 54.3391 49.3456 54.8141C48.6116 55.3115 47.8504 55.7675 47.0656 56.1801C46.2656 56.6041 45.4656 57.0321 44.6446 57.4731C43.8036 57.8621 42.9446 58.2341 42.0716 58.6131C41.2136 59.0191 40.2996 59.3011 39.4016 59.6341L38.0476 60.1191C37.5906 60.2721 37.1216 60.3901 36.6596 60.5261C35.7336 60.7631 34.8136 61.0731 33.8716 61.2481C32.9346 61.4401 31.9976 61.6321 31.0666 61.8181C29.2387 62.1146 27.3965 62.3149 25.5476 62.4181C23.8207 62.5184 22.0898 62.5317 20.3616 62.4581C19.5376 62.3901 18.7356 62.3221 17.9616 62.2581C17.5776 62.2241 17.1996 62.1851 16.8276 62.1511C16.4606 62.1001 16.0936 62.0381 15.7436 61.9821C15.0326 61.8691 14.3616 61.7611 13.7126 61.6541C13.0636 61.5471 12.4706 61.3721 11.9006 61.2541C10.7726 60.9711 9.7846 60.7631 8.9886 60.4861C7.5046 60.0181 6.6246 59.7131 6.5166 59.6741C6.5305 59.6822 6.54652 59.6861 6.5626 59.6851C15.7122 62.4091 25.4281 62.6089 34.682 60.2632C43.9358 57.9175 52.3834 53.1137 59.1306 46.3601C60.0056 45.4851 60.8406 44.5931 61.6366 43.6741C61.5126 43.8311 60.9366 44.5431 60.0006 45.6601C59.7176 45.9761 59.4586 46.3261 59.0806 46.7041L57.9516 47.8671L56.6646 49.1871Z" fill="black"/>
</g>
</g>
<g style="mix-blend-mode:multiply" opacity="0.25">
<g style="mix-blend-mode:multiply" opacity="0.25">
<path d="M2.34148 46.027H2.34748C2.33048 46.033 2.32448 46.027 2.31348 46.027C2.32259 46.0242 2.33236 46.0242 2.34148 46.027Z" fill="black"/>
</g>
</g>
<g style="mix-blend-mode:multiply" opacity="0.25">
<g style="mix-blend-mode:multiply" opacity="0.25">
<path d="M46.7945 16.9799C46.7855 16.9942 46.7778 17.0093 46.7715 17.0249V17.0189C46.7715 17.0019 46.7885 16.9909 46.7935 16.9739C46.7995 16.9616 46.8073 16.9502 46.8165 16.9399C46.8165 16.9399 46.8055 16.9579 46.7945 16.9799Z" fill="black"/>
</g>
</g>
<g style="mix-blend-mode:multiply" opacity="0.25">
<g style="mix-blend-mode:multiply" opacity="0.25">
<path d="M36.9127 31.5799C35.7185 32.7941 34.4582 33.9415 33.1377 35.0169C31.7796 36.1291 30.365 37.1704 28.8997 38.1369C28.1547 38.6229 27.4097 39.0969 26.6427 39.5259L25.5027 40.1799C25.1127 40.3799 24.7287 40.5799 24.3397 40.7799C23.9507 40.9799 23.5667 41.1799 23.1827 41.3729C22.7937 41.5479 22.3987 41.7289 22.0147 41.8979C21.2357 42.2589 20.4567 42.5639 19.6837 42.8629C18.9167 43.1789 18.1487 43.4389 17.3927 43.6869C16.6367 43.9349 15.8857 44.1549 15.1577 44.3529C14.4357 44.5669 13.7247 44.7475 13.0247 44.8949C12.3307 45.0469 11.6587 45.1949 11.0097 45.3059C10.3606 45.4169 9.74066 45.5379 9.14766 45.6109C8.55466 45.6839 7.98565 45.7469 7.45465 45.8029C6.38865 45.9099 5.45466 45.9499 4.69566 46.0119C3.35766 46.0399 2.52766 46.0339 2.34766 46.0339C15.3866 45.3457 27.7069 39.8456 36.9247 30.5979C40.9025 26.6218 44.226 22.0411 46.7717 17.0259C46.7327 17.1259 46.6597 17.2849 46.5577 17.5259C46.3997 17.8989 46.1577 18.4519 45.8187 19.1349C44.8848 21.0389 43.8213 22.8766 42.6357 24.6349C41.8466 25.8165 40.9988 26.958 40.0957 28.0549C39.1037 29.2904 38.0409 30.4674 36.9127 31.5799Z" fill="black"/>
</g>
</g>
<g style="mix-blend-mode:screen" opacity="0.4">
<g style="mix-blend-mode:screen" opacity="0.4">
<path d="M59.1305 46.36C52.3828 53.1125 43.9352 57.9153 34.6816 60.2601C25.4279 62.6049 15.7125 62.4045 6.56348 59.68C6.78348 59.719 7.67448 59.889 9.06848 60.18C9.86848 60.38 10.8745 60.496 12.0085 60.66C13.1435 60.86 14.4415 60.948 15.8405 61.072C16.1965 61.1 16.5575 61.134 16.9185 61.172C17.2855 61.178 17.6575 61.189 18.0365 61.195C18.7975 61.223 19.5825 61.24 20.3895 61.268C21.9975 61.195 23.6965 61.211 25.4455 61.008C27.2005 60.908 28.9785 60.568 30.8015 60.303C31.7041 60.111 32.6088 59.9173 33.5155 59.722C34.4295 59.541 35.3155 59.231 36.2155 58.994C36.6675 58.87 37.1245 58.762 37.5645 58.616L38.8855 58.153C39.7595 57.842 40.6515 57.583 41.4925 57.193C42.3335 56.838 43.1745 56.482 44.0095 56.132C44.8165 55.732 45.6175 55.332 46.4025 54.947C47.2025 54.586 47.9255 54.101 48.6655 53.7C49.3985 53.271 50.1385 52.9 50.7925 52.43C52.1305 51.53 53.4285 50.72 54.5225 49.84C55.0875 49.423 55.6295 49.016 56.1425 48.627C56.6425 48.209 57.1075 47.808 57.5425 47.436C57.9775 47.064 58.3945 46.708 58.7735 46.386C59.1395 46.086 59.4615 45.732 59.7665 45.45C60.8155 44.434 61.4815 43.813 61.6285 43.678C60.8405 44.593 60.0055 45.485 59.1305 46.36Z" fill="white"/>
</g>
</g>
<g style="mix-blend-mode:screen" opacity="0.4">
<g style="mix-blend-mode:screen" opacity="0.4">
<path d="M36.9245 30.5981C27.7064 39.8451 15.3862 45.3445 2.34748 46.0321C2.33048 46.0381 2.32448 46.0321 2.31348 46.0321C2.32259 46.0293 2.33236 46.0293 2.34148 46.0321C2.52748 46.0041 3.35248 45.8791 4.67848 45.7051C5.42348 45.5691 6.33148 45.4391 7.36448 45.2191C8.39748 44.9991 9.56448 44.7451 10.8125 44.4121C11.4445 44.2651 12.0875 44.0741 12.7535 43.8701C13.4195 43.6661 14.1135 43.4701 14.8135 43.2211C15.5185 42.9901 16.2355 42.7471 16.9585 42.4541C17.6815 42.1611 18.4255 41.9011 19.1535 41.5681C19.8985 41.2521 20.6485 40.9301 21.3885 40.5521C22.1335 40.2021 22.8885 39.8241 23.6225 39.4231C24.0015 39.2231 24.3735 39.0231 24.7515 38.8231L25.8515 38.1741C26.5905 37.7511 27.3075 37.2831 28.0185 36.8091C29.4523 35.8826 30.8384 34.8844 32.1715 33.8181C33.4865 32.7621 34.7615 31.6901 35.9305 30.5781C38.0806 28.5678 40.0763 26.3983 41.9005 24.0881C43.2049 22.452 44.4203 20.7469 45.5415 18.9801C46.2075 17.9421 46.6305 17.2481 46.7665 17.0221C46.7665 17.0051 46.7835 16.9941 46.7885 16.9771C46.7945 16.9648 46.8023 16.9533 46.8115 16.9431C46.8115 16.9431 46.8055 16.9601 46.7945 16.9831C46.7855 16.9974 46.7778 17.0124 46.7715 17.0281C44.2256 22.0426 40.9021 26.6226 36.9245 30.5981Z" fill="white"/>
</g>
</g>
<g style="mix-blend-mode:multiply" opacity="0.25">
<g style="mix-blend-mode:multiply" opacity="0.25">
<path d="M53.7926 65.604C47.9926 71.4033 40.1266 74.6612 31.9246 74.6612C23.7227 74.6612 15.8567 71.4033 10.0566 65.604C10.0566 65.604 10.2656 65.779 10.6566 66.104C11.0456 66.448 11.6496 66.894 12.4056 67.47C13.1786 68.028 14.1386 68.67 15.2666 69.349C16.5426 70.0777 17.8598 70.7314 19.2116 71.307C20.8111 71.9668 22.4603 72.4991 24.1436 72.899C26.0135 73.3283 27.9169 73.596 29.8326 73.699C31.876 73.801 33.9244 73.7066 35.9496 73.417C38.0378 73.1304 40.089 72.6195 42.0676 71.893C44.0551 71.1845 45.9634 70.2709 47.7616 69.167C49.5038 68.0965 51.1395 66.8619 52.6466 65.48C54.0588 64.1772 55.3544 62.7534 56.5186 61.225C57.56 59.8461 58.4883 58.3853 59.2946 56.857C59.9795 55.5543 60.5791 54.2085 61.0896 52.828C61.5296 51.586 61.8676 50.48 62.0996 49.56C62.3316 48.64 62.4946 47.901 62.5796 47.399C62.6466 47.015 62.6916 46.778 62.7146 46.676C62.0401 53.8331 58.8839 60.5289 53.7926 65.604Z" fill="black"/>
</g>
</g>
<g style="mix-blend-mode:screen" opacity="0.4">
<g style="mix-blend-mode:screen" opacity="0.4">
<path d="M34.9603 4.018L31.9523 1.156L27.9343 5.31C26.4163 6.884 24.8583 8.431 23.3183 9.994C21.7783 11.557 20.2313 13.103 18.6733 14.638C17.1153 16.173 15.5733 17.731 13.9893 19.255L11.6253 21.54L10.4683 22.675C10.0843 23.075 9.67826 23.453 9.33326 23.843C8.60474 24.6186 7.92002 25.4342 7.28226 26.286C6.63926 27.144 6.04626 28.041 5.48226 28.956C4.92299 29.8718 4.41423 30.8176 3.95826 31.789C3.49026 32.765 3.08326 33.769 2.71126 34.789C2.36726 35.811 2.02226 36.843 1.76826 37.91C1.50326 38.943 1.29426 40.01 1.11426 41.07C1.73066 33.8146 4.89769 27.0121 10.0533 21.87L31.9243 0L46.0323 14.108C43.5103 11.924 41.0603 9.678 38.6113 7.421L34.9603 4.018Z" fill="white"/>
</g>
</g>
<defs>
<linearGradient id="paint0_linear" x1="-263.891" y1="-153.981" x2="-270.019" y2="-110.967" gradientUnits="userSpaceOnUse">
<stop stop-color="#3E6896"/>
<stop offset="0.247" stop-color="#355881"/>
<stop offset="0.75" stop-color="#1F324E"/>
<stop offset="1" stop-color="#131D32"/>
</linearGradient>
<linearGradient id="paint1_linear" x1="-289.236" y1="-168.232" x2="-289.236" y2="-115.66" gradientUnits="userSpaceOnUse">
<stop stop-color="#5F2C82"/>
<stop offset="0.04" stop-color="#5D3283"/>
<stop offset="0.35" stop-color="#54618E"/>
<stop offset="0.625" stop-color="#4E8396"/>
<stop offset="0.851" stop-color="#4A989B"/>
<stop offset="1" stop-color="#49A09D"/>
</linearGradient>
<linearGradient id="paint2_linear" x1="-308.166" y1="-171.659" x2="-308.166" y2="-114.977" gradientUnits="userSpaceOnUse">
<stop stop-color="#0098BA"/>
<stop offset="0.017" stop-color="#009BBC"/>
<stop offset="0.19" stop-color="#00BAD4"/>
<stop offset="0.371" stop-color="#00D3E7"/>
<stop offset="0.56" stop-color="#00E5F4"/>
<stop offset="0.762" stop-color="#00EFFC"/>
<stop offset="1" stop-color="#00F3FF"/>
</linearGradient>
</defs>
</svg>
